0
SECTION
2
HEADER
9
$INSUNITS
70
4
9
$ACADVER
1
AC1014
9
$HANDSEED
5
FFFF
0
ENDSEC
0
SECTION
2
TABLES
0
TABLE
2
VPORT
5
8
100
AcDbSymbolTable
0
ENDTAB
0
TABLE
2
LTYPE
5
5
100
AcDbSymbolTable
0
LTYPE
5
14
100
AcDbSymbolTableRecord
100
AcDbLinetypeTableRecord
2
BYBLOCK
70
0
0
LTYPE
5
15
100
AcDbSymbolTableRecord
100
AcDbLinetypeTableRecord
2
BYLAYER
70
0
0
ENDTAB
0
TABLE
2
LAYER
5
2
100
AcDbSymbolTable
70
2
0
LAYER
5
50
100
AcDbSymbolTableRecord
100
AcDbLayerTableRecord
2
0
70
0
6
CONTINUOUS
0
ENDTAB
0
TABLE
2
STYLE
5
3
100
AcDbSymbolTable
70
1
0
STYLE
5
11
100
AcDbSymbolTableRecord
100
AcDbTextStyleTableRecord
2
STANDARD
70
0
0
ENDTAB
0
TABLE
2
VIEW
5
6
100
AcDbSymbolTable
70
0
0
ENDTAB
0
TABLE
2
UCS
5
7
100
AcDbSymbolTable
70
0
0
ENDTAB
0
TABLE
2
APPID
5
9
100
AcDbSymbolTable
70
2
0
APPID
5
12
100
AcDbSymbolTableRecord
100
AcDbRegAppTableRecord
2
ACAD
70
0
0
ENDTAB
0
TABLE
2
DIMSTYLE
5
A
100
AcDbSymbolTable
70
1
0
ENDTAB
0
TABLE
2
BLOCK_RECORD
5
1
100
AcDbSymbolTable
70
1
0
BLOCK_RECORD
5
1F
100
AcDbSymbolTableRecord
100
AcDbBlockTableRecord
2
*MODEL_SPACE
0
BLOCK_RECORD
5
1B
100
AcDbSymbolTableRecord
100
AcDbBlockTableRecord
2
*PAPER_SPACE
0
ENDTAB
0
ENDSEC
0
SECTION
2
BLOCKS
0
BLOCK
5
20
100
AcDbEntity
100
AcDbBlockBegin
2
*MODEL_SPACE
0
ENDBLK
5
21
100
AcDbEntity
100
AcDbBlockEnd
0
BLOCK
5
1C
100
AcDbEntity
100
AcDbBlockBegin
2
*PAPER_SPACE
0
ENDBLK
5
1D
100
AcDbEntity
100
AcDbBlockEnd
0
ENDSEC
0
SECTION
2
ENTITIES
0
LWPOLYLINE
5
100
100
AcDbEntity
8
0
100
AcDbPolyline
90
8
70
1
43
0.0
10
-409.64879999999999
20
235.08740000000003
42
-0.41421356237309503
10
-410.14879999999999
20
235.5874
10
-410.14880000000005
20
248.5874
42
-0.41421356237309503
10
-409.64879999999999
20
249.0874
10
-396.64880000000005
20
249.08739999999997
42
-0.41421356237309503
10
-396.14880000000005
20
248.5874
10
-396.14879999999999
20
235.5874
42
-0.41421356237309503
10
-396.64880000000005
20
235.0874
0
LWPOLYLINE
5
101
100
AcDbEntity
8
0
100
AcDbPolyline
90
8
70
1
43
0.0
10
-410.14880000000005
20
229.53739999999999
10
-410.14880000000005
20
216.53739999999999
42
0.41421356237309503
10
-409.64879999999999
20
216.03740000000002
10
-396.64880000000005
20
216.03739999999999
42
0.41421356237309503
10
-396.14879999999999
20
216.53739999999999
10
-396.14880000000005
20
229.53739999999999
42
0.41421356237309503
10
-396.64880000000005
20
230.03739999999999
10
-409.64879999999999
20
230.03739999999999
42
0.41421356237309503
0
LWPOLYLINE
5
102
100
AcDbEntity
8
0
100
AcDbPolyline
90
16
70
1
43
0.0
10
-387.09879999999998
20
249.0874
10
-390.59879999999998
20
249.0874
42
0.41421356237309503
10
-391.09880000000004
20
248.5874
10
-391.09879999999998
20
235.5874
42
0.41421356237309503
10
-390.59879999999998
20
235.08740000000003
10
-387.59880000000004
20
235.08740000000003
10
-387.59879999999998
20
234.58740000000003
42
0.41421356237309503
10
-387.09879999999998
20
234.0874
10
-381.09879999999998
20
234.0874
42
0.41421356237309503
10
-380.59879999999998
20
234.58740000000003
10
-380.59879999999998
20
235.08740000000003
10
-377.59880000000004
20
235.0874
42
0.41421356237309503
10
-377.09879999999998
20
235.5874
10
-377.09880000000004
20
248.5874
42
0.41421356237309503
10
-377.59880000000004
20
249.0874
10
-381.09879999999998
20
249.0874
0
LWPOLYLINE
5
103
100
AcDbEntity
8
0
100
AcDbPolyline
90
8
70
1
43
0.0
10
-377.09879999999998
20
216.53739999999999
10
-377.09879999999998
20
229.53739999999999
42
0.41421356237309503
10
-377.59880000000004
20
230.03739999999999
10
-390.59879999999998
20
230.03739999999999
42
0.41421356237309503
10
-391.09880000000004
20
229.53739999999999
10
-391.09879999999998
20
216.53739999999999
42
0.41421356237309503
10
-390.59879999999998
20
216.03740000000002
10
-377.59880000000004
20
216.03739999999999
42
0.41421356237309503
0
LWPOLYLINE
5
104
100
AcDbEntity
8
0
100
AcDbPolyline
90
8
70
1
43
0.0
10
-377.09879999999998
20
178.4374
42
-0.41421356237309503
10
-377.59880000000004
20
177.9374
10
-390.59879999999998
20
177.93740000000003
42
-0.41421356237309503
10
-391.09879999999998
20
178.4374
10
-391.09880000000004
20
191.437399
42
-0.41421356237309503
10
-390.59879999999998
20
191.937399
10
-377.59880000000004
20
191.93739899999997
42
-0.41421356237309503
10
-377.09880000000004
20
191.437399
0
LWPOLYLINE
5
105
100
AcDbEntity
8
0
100
AcDbPolyline
90
8
70
1
43
0.0
10
-390.59879999999998
20
196.98740000000001
10
-377.59880000000004
20
196.98740000000001
42
0.41421356237309503
10
-377.09879999999998
20
197.48740000000001
10
-377.09880000000004
20
210.48740000000004
42
0.41421356237309503
10
-377.59880000000004
20
210.98740000000004
10
-390.59879999999998
20
210.98740000000004
42
0.41421356237309503
10
-391.09880000000004
20
210.48740000000004
10
-391.09879999999998
20
197.48740000000001
42
0.41421356237309503
0
LWPOLYLINE
5
106
100
AcDbEntity
8
0
100
AcDbPolyline
90
8
70
1
43
0.0
10
-396.64880000000005
20
210.98740000000004
10
-409.64879999999999
20
210.98740000000004
42
0.41421356237309503
10
-410.14880000000005
20
210.48740000000004
10
-410.14879999999999
20
197.48740000000001
42
0.41421356237309503
10
-409.64879999999999
20
196.98740000000001
10
-396.64880000000005
20
196.98740000000001
42
0.41421356237309503
10
-396.14879999999999
20
197.48740000000001
10
-396.14880000000005
20
210.48740000000004
42
0.41421356237309503
0
LWPOLYLINE
5
107
100
AcDbEntity
8
0
100
AcDbPolyline
90
9
70
1
43
0.0
10
-396.28628366829378
20
191.78175624073441
42
-0.19224582545828106
10
-396.14880000000005
20
191.437399
10
-396.14879999999999
20
178.4374
42
-0.41421356237309503
10
-396.64880000000005
20
177.9374
10
-409.64879999999999
20
177.93740000000003
42
-0.41421356237309503
10
-410.14879999999999
20
178.4374
10
-410.14880000000005
20
191.437399
42
-0.41421356237309503
10
-409.64879999999999
20
191.937399
10
-402.71212254645604
20
191.93739899999423
42
-1.1616287060844328
0
LWPOLYLINE
5
108
100
AcDbEntity
8
0
100
AcDbPolyline
90
8
70
1
43
0.0
10
-415.19880000000001
20
216.53739999999999
42
-0.41421356237309503
10
-415.69880000000006
20
216.03739999999999
10
-428.69880000000001
20
216.03740000000002
42
-0.41421356237309503
10
-429.19880000000001
20
216.53739999999999
10
-429.19880000000006
20
229.53739999999999
42
-0.41421356237309503
10
-428.69880000000001
20
230.03739999999999
10
-415.69880000000006
20
230.03739999999996
42
-0.41421356237309503
10
-415.19880000000006
20
229.53739999999999
0
LWPOLYLINE
5
109
100
AcDbEntity
8
0
100
AcDbPolyline
90
8
70
1
43
0.0
10
-415.19880000000001
20
197.48740000000001
10
-415.19880000000001
20
210.48740000000004
42
0.41421356237309503
10
-415.69880000000006
20
210.98740000000004
10
-428.69880000000001
20
210.98740000000004
42
0.41421356237309503
10
-429.19880000000006
20
210.48740000000004
10
-429.19880000000001
20
197.48740000000001
42
0.41421356237309503
10
-428.69880000000001
20
196.98740000000001
10
-415.69880000000006
20
196.98740000000001
42
0.41421356237309503
0
LWPOLYLINE
5
110
100
AcDbEntity
8
0
100
AcDbPolyline
90
8
70
1
43
0.0
10
-415.69880000000006
20
249.08739999999997
42
-0.41421356237309503
10
-415.19880000000006
20
248.5874
10
-415.19880000000001
20
235.5874
42
-0.41421356237309503
10
-415.69880000000006
20
235.0874
10
-428.69880000000001
20
235.08740000000003
42
-0.41421356237309503
10
-429.19880000000001
20
235.5874
10
-429.19880000000006
20
248.5874
42
-0.41421356237309503
10
-428.69880000000001
20
249.0874
0
LWPOLYLINE
5
111
100
AcDbEntity
8
0
100
AcDbPolyline
90
8
70
1
43
0.0
10
-415.19880000000001
20
178.4374
42
-0.41421356237309503
10
-415.69880000000006
20
177.9374
10
-428.69880000000001
20
177.93740000000003
42
-0.41421356237309503
10
-429.19880000000001
20
178.4374
10
-429.19880000000006
20
191.437399
42
-0.41421356237309503
10
-428.69880000000001
20
191.937399
10
-415.69880000000006
20
191.93739899999997
42
-0.41421356237309503
10
-415.19880000000006
20
191.437399
0
LWPOLYLINE
5
112
100
AcDbEntity
8
0
100
AcDbPolyline
90
8
70
1
43
0.0
10
-371.54880000000003
20
177.93740000000003
42
-0.41421356237309503
10
-372.04880000000003
20
178.4374
10
-372.04880000000003
20
191.437399
42
-0.41421356237309503
10
-371.54880000000003
20
191.937399
10
-358.54880000000003
20
191.93739899999997
42
-0.41421356237309503
10
-358.04880000000003
20
191.437399
10
-358.04879999999997
20
178.4374
42
-0.41421356237309503
10
-358.54880000000003
20
177.9374
0
LWPOLYLINE
5
113
100
AcDbEntity
8
0
100
AcDbPolyline
90
8
70
1
43
0.0
10
-358.54880000000003
20
210.98739999999998
42
-0.41421356237309503
10
-358.04880000000003
20
210.48740000000004
10
-358.04879999999997
20
197.48740000000001
42
-0.41421356237309503
10
-358.54880000000003
20
196.98740000000001
10
-371.54880000000003
20
196.98740000000004
42
-0.41421356237309503
10
-372.04880000000003
20
197.48740000000001
10
-372.04880000000003
20
210.48740000000004
42
-0.41421356237309503
10
-371.54880000000003
20
210.98740000000004
0
LWPOLYLINE
5
114
100
AcDbEntity
8
0
100
AcDbPolyline
90
8
70
1
43
0.0
10
-358.04879999999997
20
216.53739999999999
42
-0.41421356237309503
10
-358.54880000000003
20
216.03739999999999
10
-371.54880000000003
20
216.03740000000002
42
-0.41421356237309503
10
-372.04880000000003
20
216.53739999999999
10
-372.04880000000003
20
229.53739999999999
42
-0.41421356237309503
10
-371.54880000000003
20
230.03739999999999
10
-358.54880000000003
20
230.03739999999996
42
-0.41421356237309503
10
-358.04880000000003
20
229.53739999999999
0
LWPOLYLINE
5
115
100
AcDbEntity
8
0
100
AcDbPolyline
90
8
70
1
43
0.0
10
-352.99879900000008
20
210.48740000000004
42
-0.41421356237309503
10
-352.49879900000002
20
210.98740000000004
10
-339.49880000000002
20
210.98739999999998
42
-0.41421356237309503
10
-338.99880000000002
20
210.48740000000004
10
-338.99879999999996
20
197.48740000000001
42
-0.41421356237309503
10
-339.49880000000002
20
196.98740000000001
10
-352.49879900000002
20
196.98740000000004
42
-0.41421356237309503
10
-352.99879900000002
20
197.48740000000001
0
LWPOLYLINE
5
116
100
AcDbEntity
8
0
100
AcDbPolyline
90
8
70
1
43
0.0
10
-339.49880000000002
20
191.93739899999997
42
-0.41421356237309503
10
-338.99880000000002
20
191.437399
10
-338.99879999999996
20
178.4374
42
-0.41421356237309503
10
-339.49880000000002
20
177.9374
10
-352.49879900000002
20
177.93740000000003
42
-0.41421356237309503
10
-352.99879900000002
20
178.4374
10
-352.99879900000008
20
191.437399
42
-0.41421356237309503
10
-352.49879900000002
20
191.937399
0
LWPOLYLINE
5
117
100
AcDbEntity
8
0
100
AcDbPolyline
90
8
70
1
43
0.0
10
-339.49880000000002
20
230.03739999999996
42
-0.41421356237309503
10
-338.99880000000002
20
229.53739999999999
10
-338.99879999999996
20
216.53739999999999
42
-0.41421356237309503
10
-339.49880000000002
20
216.03739999999999
10
-352.49879900000002
20
216.03740000000002
42
-0.41421356237309503
10
-352.99879900000002
20
216.53739999999999
10
-352.99879900000008
20
229.53739999999999
42
-0.41421356237309503
10
-352.49879900000002
20
230.03739999999999
0
LWPOLYLINE
5
118
100
AcDbEntity
8
0
100
AcDbPolyline
90
8
70
1
43
0.0
10
-429.41887100000002
20
251.354423
10
-338.58991099999997
20
251.35666299999994
42
-0.41421356237309015
10
-336.47333700000013
20
249.23991100000001
10
-336.47333700000001
20
177.79991100000001
42
-0.41421356237309015
10
-338.59008899999998
20
175.68333699999999
10
-429.41904899999997
20
175.68350700000002
42
-0.4142135623731098
10
-431.53562300000004
20
177.80025900000001
10
-431.53562300000004
20
249.23784900000001
42
-0.41421356237310486
0
ARC
5
119
100
AcDbEntity
8
0
100
AcDbCircle
10
-399.48750000000007
20
192.34275
30
0
40
3.2499999999999849
210
-0
220
0
230
1
100
AcDbArc
50
-9.9398062988589011
51
187.16478187805174
0
ARC
5
120
100
AcDbEntity
8
0
100
AcDbCircle
10
-371.25959999999998
20
240.97640000000001
30
0
40
3.249999999999984
210
0
220
0
230
1
100
AcDbArc
50
104.05367509305354
51
255.94632490737328
0
LWPOLYLINE
5
121
100
AcDbEntity
8
0
100
AcDbPolyline
90
16
70
1
43
0.0
10
-387.09875
20
234.08750000000003
42
-0.41421356237309503
10
-387.59874999999994
20
234.58750000000003
10
-387.59875
20
235.08750000000003
10
-390.59875
20
235.08750000000003
42
-0.41421356237309503
10
-391.09874999999994
20
235.58750000000001
10
-391.09875
20
248.58749999999998
42
-0.41421356237309503
10
-390.59875
20
249.08750000000001
10
-387.09875
20
249.08750000000001
10
-381.09874999999994
20
249.08750000000001
10
-377.59874999999994
20
249.08749999999995
42
-0.41421356237309503
10
-377.09875
20
248.58749999999998
10
-377.09875
20
235.58750000000001
42
-0.41421356237309503
10
-377.59874999999994
20
235.08750000000003
10
-380.59875
20
235.08750000000003
10
-380.59874999999988
20
234.58750000000003
42
-0.41421356237309503
10
-381.09874999999994
20
234.08750000000001
0
LINE
5
122
100
AcDbEntity
8
0
100
AcDbLine
10
-362.02374999999995
20
249.08750000000001
30
0
11
-364.46174999999994
21
249.08750000000001
31
0
0
LWPOLYLINE
5
123
100
AcDbEntity
8
0
100
AcDbPolyline
90
8
70
1
43
0.0
10
-428.6987499999999
20
230.03749999999999
10
-415.69874999999996
20
230.03749999999999
42
-0.41421356237309503
10
-415.19875000000002
20
229.53750000000002
10
-415.19875000000002
20
216.53749999999999
42
-0.41421356237309503
10
-415.69874999999996
20
216.03750000000002
10
-428.6987499999999
20
216.03750000000002
42
-0.41421356237309503
10
-429.1987499999999
20
216.53749999999999
10
-429.1987499999999
20
229.53750000000002
42
-0.41421356237309503
0
ARC
5
124
100
AcDbEntity
8
0
100
AcDbCircle
10
-364.46174999999994
20
234.58750000000003
30
0
40
0.50000000000000711
210
-0
220
0
230
1
100
AcDbArc
50
-90
51
0
0
LWPOLYLINE
5
125
100
AcDbEntity
8
0
100
AcDbPolyline
90
8
70
1
43
0.0
10
-410.14874999999995
20
229.53750000000002
42
-0.41421356237309503
10
-409.64875000000001
20
230.03749999999999
10
-396.64874999999995
20
230.03749999999999
42
-0.41421356237309503
10
-396.14874999999995
20
229.53750000000002
10
-396.14874999999995
20
216.53750000000002
42
-0.41421356237309503
10
-396.64874999999995
20
216.03750000000002
10
-409.64875000000001
20
216.03750000000002
42
-0.41421356237309503
10
-410.14874999999995
20
216.53749999999999
0
LINE
5
126
100
AcDbEntity
8
0
100
AcDbLine
10
-363.96174999999999
20
235.08750000000003
30
0
11
-362.02374999999995
21
235.08750000000003
31
0
0
ARC
5
127
100
AcDbEntity
8
0
100
AcDbCircle
10
-340.58574999999996
20
234.58750000000003
30
0
40
0.50000000000000711
210
-0
220
0
230
1
100
AcDbArc
50
-90
51
0
0
LWPOLYLINE
5
128
100
AcDbEntity
8
0
100
AcDbPolyline
90
8
70
1
43
0.0
10
-396.64874999999995
20
210.98749999999998
42
-0.41421356237309503
10
-396.14874999999995
20
210.48750000000001
10
-396.14874999999995
20
197.48750000000001
42
-0.41421356237313667
10
-396.64875000000001
20
196.98750000000001
10
-409.64875000000001
20
196.98750000000001
42
-0.41421356237309503
10
-410.14874999999995
20
197.48749999999998
10
-410.14874999999995
20
210.48750000000001
42
-0.41421356237313667
10
-409.64874999999995
20
210.98749999999998
0
LWPOLYLINE
5
129
100
AcDbEntity
8
0
100
AcDbPolyline
90
8
70
1
43
0.0
10
-372.04875000000004
20
229.53750000000002
42
-0.41421356237309503
10
-371.54874999999998
20
230.03750000000002
10
-358.54874999999998
20
230.03750000000008
42
-0.41421356237309503
10
-358.04874999999993
20
229.53750000000002
10
-358.04874999999993
20
216.53750000000002
42
-0.41421356237309503
10
-358.54874999999998
20
216.03750000000002
10
-371.54874999999998
20
216.03750000000005
42
-0.41421356237309503
10
-372.04874999999993
20
216.53750000000002
0
LINE
5
130
100
AcDbEntity
8
0
100
AcDbLine
10
-346.58574999999996
20
234.08750000000001
30
0
11
-342.99874999999997
21
234.08750000000001
31
0
0
LINE
5
131
100
AcDbEntity
8
0
100
AcDbLine
10
-340.08574999999996
20
235.08750000000003
30
0
11
-339.49874999999992
21
235.08750000000003
31
0
0
LINE
5
132
100
AcDbEntity
8
0
100
AcDbLine
10
-349.02375000000001
20
249.08750000000001
30
0
11
-352.49874999999997
21
249.08750000000001
31
0
0
LINE
5
133
100
AcDbEntity
8
0
100
AcDbLine
10
-371.54874999999998
20
235.08750000000003
30
0
11
-370.96174999999994
21
235.08750000000003
31
0
0
LINE
5
134
100
AcDbEntity
8
0
100
AcDbLine
10
-340.08575000000002
20
234.58750000000003
30
0
11
-340.08574999999996
21
235.08750000000003
31
0
0
LINE
5
135
100
AcDbEntity
8
0
100
AcDbLine
10
-340.58574999999996
20
249.08750000000001
30
0
11
-342.99874999999997
21
249.08750000000001
31
0
0
LWPOLYLINE
5
136
100
AcDbEntity
8
0
100
AcDbPolyline
90
8
70
1
43
0.0
10
-396.64874999999995
20
249.08749999999995
42
-0.41421356237309503
10
-396.14874999999995
20
248.58749999999998
10
-396.14874999999995
20
235.58750000000001
42
-0.41421356237309503
10
-396.64874999999995
20
235.08750000000003
10
-409.64875000000001
20
235.08750000000003
42
-0.41421356237309503
10
-410.14874999999995
20
235.58750000000001
10
-410.14875000000006
20
248.58749999999998
42
-0.41421356237309503
10
-409.64875000000001
20
249.08750000000001
0
LINE
5
137
100
AcDbEntity
8
0
100
AcDbLine
10
-348.99874999999997
20
234.08750000000001
30
0
11
-346.58574999999996
21
234.08750000000001
31
0
0
LINE
5
138
100
AcDbEntity
8
0
100
AcDbLine
10
-342.99874999999997
20
249.08750000000001
30
0
11
-346.58574999999996
21
249.08750000000001
31
0
0
ARC
5
139
100
AcDbEntity
8
0
100
AcDbCircle
10
-348.99874999999997
20
234.58750000000003
30
0
40
0.49999999999997158
210
0
220
0
230
1
100
AcDbArc
50
180
51
270
0
LINE
5
140
100
AcDbEntity
8
0
100
AcDbLine
10
-358.54874999999998
20
235.08750000000003
30
0
11
-352.49875000000003
21
235.08750000000003
31
0
0
LINE
5
141
100
AcDbEntity
8
0
100
AcDbLine
10
-348.99874999999997
20
249.08750000000001
30
0
11
-349.02375000000001
21
249.08750000000001
31
0
0
LINE
5
142
100
AcDbEntity
8
0
100
AcDbLine
10
-370.46174999999999
20
249.08750000000001
30
0
11
-371.54874999999998
21
249.08750000000001
31
0
0
LINE
5
143
100
AcDbEntity
8
0
100
AcDbLine
10
-349.49874999999997
20
235.08750000000003
30
0
11
-349.49874999999992
21
234.58750000000003
31
0
0
LINE
5
144
100
AcDbEntity
8
0
100
AcDbLine
10
-342.99874999999997
20
234.08750000000001
30
0
11
-340.58574999999996
21
234.08750000000001
31
0
0
ARC
5
145
100
AcDbEntity
8
0
100
AcDbCircle
10
-370.46174999999999
20
234.58750000000003
30
0
40
0.49999999999997158
210
0
220
0
230
1
100
AcDbArc
50
180
51
270
0
LINE
5
146
100
AcDbEntity
8
0
100
AcDbLine
10
-362.02374999999995
20
235.08750000000003
30
0
11
-358.54874999999998
21
235.08750000000003
31
0
0
LINE
5
147
100
AcDbEntity
8
0
100
AcDbLine
10
-338.99874999999997
20
235.58750000000001
30
0
11
-338.99874999999997
21
248.58749999999998
31
0
0
LINE
5
148
100
AcDbEntity
8
0
100
AcDbLine
10
-346.58574999999996
20
249.08750000000001
30
0
11
-348.99874999999997
21
249.08750000000001
31
0
0
LINE
5
149
100
AcDbEntity
8
0
100
AcDbLine
10
-339.49874999999997
20
249.08750000000001
30
0
11
-340.58574999999996
21
249.08750000000001
31
0
0
LINE
5
150
100
AcDbEntity
8
0
100
AcDbLine
10
-358.54874999999998
20
249.08750000000001
30
0
11
-362.02374999999995
21
249.08750000000001
31
0
0
LINE
5
151
100
AcDbEntity
8
0
100
AcDbLine
10
-352.49875000000003
20
235.08750000000003
30
0
11
-349.49874999999997
21
235.08750000000003
31
0
0
ARC
5
152
100
AcDbEntity
8
0
100
AcDbCircle
10
-371.54874999999998
20
235.58750000000001
30
0
40
0.49999999999997158
210
0
220
0
230
1
100
AcDbArc
50
180
51
270
0
LINE
5
153
100
AcDbEntity
8
0
100
AcDbLine
10
-370.96174999999994
20
235.08750000000003
30
0
11
-370.96174999999994
21
234.58750000000003
31
0
0
LINE
5
154
100
AcDbEntity
8
0
100
AcDbLine
10
-363.96174999999999
20
234.58750000000003
30
0
11
-363.96174999999999
21
235.08750000000003
31
0
0
ARC
5
155
100
AcDbEntity
8
0
100
AcDbCircle
10
-339.49874999999997
20
248.58749999999998
30
0
40
0.50000000000004263
210
0
220
-0
230
1
100
AcDbArc
50
0
51
90
0
ARC
5
156
100
AcDbEntity
8
0
100
AcDbCircle
10
-339.49874999999997
20
235.58750000000001
30
0
40
0.49999999999997158
210
-0
220
0
230
1
100
AcDbArc
50
-89.999999999993491
51
0
0
LINE
5
157
100
AcDbEntity
8
0
100
AcDbLine
10
-352.49874999999997
20
249.08750000000001
30
0
11
-358.54874999999998
21
249.08750000000001
31
0
0
LINE
5
158
100
AcDbEntity
8
0
100
AcDbLine
10
-364.46174999999994
20
249.08750000000001
30
0
11
-370.46174999999999
21
249.08750000000001
31
0
0
LINE
5
159
100
AcDbEntity
8
0
100
AcDbLine
10
-370.46174999999999
20
234.08750000000001
30
0
11
-364.46174999999994
21
234.08750000000001
31
0
0
LWPOLYLINE
5
160
100
AcDbEntity
8
0
100
AcDbPolyline
90
8
70
1
43
0.0
10
-415.19875000000002
20
248.58749999999998
10
-415.19875000000002
20
235.58750000000001
42
-0.41421356237309503
10
-415.69874999999996
20
235.08749999999998
10
-428.6987499999999
20
235.08749999999995
42
-0.41421356237309503
10
-429.19874999999996
20
235.58750000000001
10
-429.19874999999996
20
248.58749999999998
42
-0.41421356237309503
10
-428.6987499999999
20
249.08750000000001
10
-415.69874999999996
20
249.08749999999995
42
-0.41421356237309503
0
ARC
5
161
100
AcDbEntity
8
0
100
AcDbCircle
10
-371.54874999999998
20
248.58749999999998
30
0
40
0.50000000000004263
210
0
220
-0
230
1
100
AcDbArc
50
90
51
180
0
LWPOLYLINE
5
162
100
AcDbEntity
8
0
100
AcDbPolyline
90
8
70
1
43
0.0
10
-377.59874999999994
20
191.93749999999997
42
-0.41421356237309503
10
-377.09875
20
191.4375
10
-377.09875
20
178.43749999999997
42
-0.41421356237309503
10
-377.59874999999994
20
177.9375
10
-390.59875
20
177.9375
42
-0.41421356237309503
10
-391.09874999999994
20
178.43749999999997
10
-391.09875
20
191.4375
42
-0.41421356237313667
10
-390.59874999999988
20
191.9375
0
LWPOLYLINE
5
163
100
AcDbEntity
8
0
100
AcDbPolyline
90
8
70
1
43
0.0
10
-339.49874999999997
20
177.9375
10
-352.49874999999997
20
177.93749999999991
42
-0.41421356237309503
10
-352.99874999999997
20
178.43749999999997
10
-352.99874999999997
20
191.4375
42
-0.41421356237309503
10
-352.49874999999997
20
191.9375
10
-339.49874999999997
20
191.93750000000006
42
-0.41421356237309503
10
-338.99874999999997
20
191.4375
10
-338.99875000000003
20
178.43749999999997
42
-0.41421356237309503
0
LWPOLYLINE
5
164
100
AcDbEntity
8
0
100
AcDbPolyline
90
8
70
1
43
0.0
10
-372.04875000000004
20
191.4375
42
-0.41421356237309503
10
-371.54874999999998
20
191.9375
10
-358.54874999999998
20
191.93750000000006
42
-0.41421356237309503
10
-358.04874999999993
20
191.4375
10
-358.04875000000004
20
178.43749999999997
42
-0.41421356237309503
10
-358.54874999999998
20
177.9375
10
-371.54874999999998
20
177.9375
42
-0.41421356237309503
10
-372.04874999999993
20
178.43749999999997
0
ARC
5
165
100
AcDbEntity
8
0
100
AcDbCircle
10
-396.64874999999995
20
191.4375
30
0
40
0.49999999999997158
210
0
220
-0
230
1
100
AcDbArc
50
0
51
43.532972370580048
0
LWPOLYLINE
5
166
100
AcDbEntity
8
0
100
AcDbPolyline
90
8
70
1
43
0.0
10
-429.1987499999999
20
191.4375
42
-0.41421356237309503
10
-428.6987499999999
20
191.93749999999997
10
-415.69874999999996
20
191.93749999999997
42
-0.41421356237309503
10
-415.19875000000002
20
191.4375
10
-415.19875000000002
20
178.43749999999997
42
-0.41421356237309503
10
-415.69874999999996
20
177.9375
10
-428.6987499999999
20
177.9375
42
-0.41421356237309503
10
-429.1987499999999
20
178.43749999999997
0
LWPOLYLINE
5
167
100
AcDbEntity
8
0
100
AcDbPolyline
90
8
70
1
43
0.0
10
-371.54874999999998
20
210.98750000000001
10
-358.54874999999998
20
210.98749999999998
42
-0.41421356237309503
10
-358.04875000000004
20
210.48750000000001
10
-358.04874999999993
20
197.48750000000001
42
-0.41421356237309503
10
-358.54874999999998
20
196.98750000000001
10
-371.54874999999998
20
196.98750000000004
42
-0.41421356237309503
10
-372.04874999999993
20
197.48750000000001
10
-372.04875000000004
20
210.48750000000001
42
-0.41421356237309503
0
ARC
5
168
100
AcDbEntity
8
0
100
AcDbCircle
10
-409.64875000000001
20
191.4375
30
0
40
0.49999999999997158
210
0
220
-0
230
1
100
AcDbArc
50
90
51
180
0
ARC
5
169
100
AcDbEntity
8
0
100
AcDbCircle
10
-409.64875000000001
20
178.43749999999997
30
0
40
0.49999999999997158
210
0
220
0
230
1
100
AcDbArc
50
180
51
270
0
LINE
5
170
100
AcDbEntity
8
0
100
AcDbLine
10
-410.14874999999995
20
191.4375
30
0
11
-410.14874999999995
21
178.43749999999997
31
0
0
LWPOLYLINE
5
171
100
AcDbEntity
8
0
100
AcDbPolyline
90
8
70
1
43
0.0
10
-391.09875
20
210.48750000000001
42
-0.41421356237309503
10
-390.59875
20
210.98750000000001
10
-377.59874999999994
20
210.98749999999998
42
-0.41421356237309503
10
-377.09875
20
210.48750000000001
10
-377.09875
20
197.48750000000001
42
-0.41421356237309503
10
-377.59874999999994
20
196.98750000000001
10
-390.59875
20
196.98750000000004
42
-0.41421356237309503
10
-391.09874999999994
20
197.48750000000001
0
LWPOLYLINE
5
172
100
AcDbEntity
8
0
100
AcDbPolyline
90
8
70
1
43
0.0
10
-338.99874999999997
20
210.48750000000001
10
-338.99874999999997
20
197.48750000000001
42
-0.41421356237309503
10
-339.49874999999997
20
196.98750000000001
10
-352.49874999999997
20
196.98749999999995
42
-0.41421356237309503
10
-352.99874999999997
20
197.48750000000001
10
-352.99874999999997
20
210.48750000000001
42
-0.41421356237309503
10
-352.49874999999997
20
210.98750000000001
10
-339.49874999999997
20
210.98750000000007
42
-0.41421356237309503
0
LINE
5
173
100
AcDbEntity
8
0
100
AcDbLine
10
-396.14874999999995
20
178.43749999999997
30
0
11
-396.14874999999995
21
191.4375
31
0
0
LWPOLYLINE
5
174
100
AcDbEntity
8
0
100
AcDbPolyline
90
8
70
1
43
0.0
10
-415.69874999999996
20
196.98750000000001
10
-428.6987499999999
20
196.98749999999993
42
-0.41421356237309503
10
-429.19874999999996
20
197.48749999999998
10
-429.1987499999999
20
210.48750000000001
42
-0.41421356237309503
10
-428.6987499999999
20
210.98749999999998
10
-415.69874999999996
20
210.98749999999998
42
-0.41421356237309503
10
-415.19875000000002
20
210.48750000000001
10
-415.19875000000002
20
197.48749999999998
42
-0.41421356237309503
0
LINE
5
175
100
AcDbEntity
8
0
100
AcDbLine
10
-402.71213524104951
20
191.9375
30
0
11
-409.64875000000001
21
191.93749999999997
31
0
0
LWPOLYLINE
5
176
100
AcDbEntity
8
0
100
AcDbPolyline
90
8
70
1
43
0.0
10
-339.49874999999997
20
216.03750000000002
10
-352.49874999999997
20
216.03750000000005
42
-0.41421356237309503
10
-352.99874999999992
20
216.53750000000002
10
-352.99874999999992
20
229.53750000000002
42
-0.41421356237309503
10
-352.49874999999997
20
230.03749999999999
10
-339.49874999999997
20
230.03750000000008
42
-0.41421356237309503
10
-338.99874999999997
20
229.53750000000002
10
-338.99874999999997
20
216.53750000000002
42
-0.41421356237309503
0
ARC
5
177
100
AcDbEntity
8
0
100
AcDbCircle
10
-396.64874999999995
20
178.43749999999997
30
0
40
0.49999999999997158
210
-0
220
0
230
1
100
AcDbArc
50
-90
51
0
0
LINE
5
178
100
AcDbEntity
8
0
100
AcDbLine
10
-409.64875000000001
20
177.9375
30
0
11
-396.64874999999995
21
177.9375
31
0
0
LWPOLYLINE
5
179
100
AcDbEntity
8
0
100
AcDbPolyline
90
8
70
1
43
0.0
10
-377.09875
20
229.53750000000002
10
-377.09875
20
216.53750000000002
42
-0.41421356237309503
10
-377.59874999999994
20
216.03750000000002
10
-390.59875
20
216.03750000000005
42
-0.41421356237309503
10
-391.09874999999994
20
216.53750000000002
10
-391.09875
20
229.53750000000002
42
-0.41421356237309503
10
-390.59875
20
230.03750000000002
10
-377.59874999999994
20
230.03749999999999
42
-0.41421356237309503
0
LINE
5
180
100
AcDbEntity
8
0
100
AcDbLine
10
-372.04874999999993
20
248.58749999999998
30
0
11
-372.04874999999993
21
244.12913568151538
31
0
0
LINE
5
181
100
AcDbEntity
8
0
100
AcDbLine
10
-372.04874999999993
20
237.82366431848465
30
0
11
-372.04874999999993
21
235.58750000000001
31
0
0
ENDSEC
0
SECTION
2
OBJECTS
0
DICTIONARY
5
C
100
AcDbDictionary
3
ACAD_GROUP
350
D
3
ACAD_MLINESTYLE
350
17
0
DICTIONARY
5
D
100
AcDbDictionary
0
DICTIONARY
5
1A
330
C
100
AcDbDictionary
0
DICTIONARY
5
17
100
AcDbDictionary
0
ENDSEC
0
EOF
