0
SECTION
2
HEADER
9
$INSUNITS
70
4
9
$ACADVER
1
AC1014
9
$HANDSEED
5
FFFF
0
ENDSEC
0
SECTION
2
TABLES
0
TABLE
2
VPORT
5
8
100
AcDbSymbolTable
0
ENDTAB
0
TABLE
2
LTYPE
5
5
100
AcDbSymbolTable
0
LTYPE
5
14
100
AcDbSymbolTableRecord
100
AcDbLinetypeTableRecord
2
BYBLOCK
70
0
0
LTYPE
5
15
100
AcDbSymbolTableRecord
100
AcDbLinetypeTableRecord
2
BYLAYER
70
0
0
ENDTAB
0
TABLE
2
LAYER
5
2
100
AcDbSymbolTable
70
2
0
LAYER
5
50
100
AcDbSymbolTableRecord
100
AcDbLayerTableRecord
2
0
70
0
6
CONTINUOUS
0
ENDTAB
0
TABLE
2
STYLE
5
3
100
AcDbSymbolTable
70
1
0
STYLE
5
11
100
AcDbSymbolTableRecord
100
AcDbTextStyleTableRecord
2
STANDARD
70
0
0
ENDTAB
0
TABLE
2
VIEW
5
6
100
AcDbSymbolTable
70
0
0
ENDTAB
0
TABLE
2
UCS
5
7
100
AcDbSymbolTable
70
0
0
ENDTAB
0
TABLE
2
APPID
5
9
100
AcDbSymbolTable
70
2
0
APPID
5
12
100
AcDbSymbolTableRecord
100
AcDbRegAppTableRecord
2
ACAD
70
0
0
ENDTAB
0
TABLE
2
DIMSTYLE
5
A
100
AcDbSymbolTable
70
1
0
ENDTAB
0
TABLE
2
BLOCK_RECORD
5
1
100
AcDbSymbolTable
70
1
0
BLOCK_RECORD
5
1F
100
AcDbSymbolTableRecord
100
AcDbBlockTableRecord
2
*MODEL_SPACE
0
BLOCK_RECORD
5
1B
100
AcDbSymbolTableRecord
100
AcDbBlockTableRecord
2
*PAPER_SPACE
0
ENDTAB
0
ENDSEC
0
SECTION
2
BLOCKS
0
BLOCK
5
20
100
AcDbEntity
100
AcDbBlockBegin
2
*MODEL_SPACE
0
ENDBLK
5
21
100
AcDbEntity
100
AcDbBlockEnd
0
BLOCK
5
1C
100
AcDbEntity
100
AcDbBlockBegin
2
*PAPER_SPACE
0
ENDBLK
5
1D
100
AcDbEntity
100
AcDbBlockEnd
0
ENDSEC
0
SECTION
2
ENTITIES
0
LINE
5
100
100
AcDbEntity
8
0
100
AcDbLine
10
-239.52480000000003
20
249.0874
30
0
11
-233.5248
21
249.0874
31
0
0
LINE
5
101
100
AcDbEntity
8
0
100
AcDbLine
10
-233.5248
20
234.0874
30
0
11
-239.52480000000003
21
234.0874
31
0
0
LINE
5
102
100
AcDbEntity
8
0
100
AcDbLine
10
-230.02480000000003
20
216.03739999999999
30
0
11
-243.02480000000003
21
216.03740000000002
31
0
0
LINE
5
103
100
AcDbEntity
8
0
100
AcDbLine
10
-243.52480000000003
20
216.53739999999999
30
0
11
-243.52480000000003
21
229.53739999999999
31
0
0
LINE
5
104
100
AcDbEntity
8
0
100
AcDbLine
10
-248.57480000000004
20
229.53739999999999
30
0
11
-248.57480000000004
21
216.53739999999999
31
0
0
ARC
5
105
100
AcDbEntity
8
0
100
AcDbCircle
10
-249.07480000000004
20
197.48740000000001
30
0
40
0.50000000000000711
210
0
220
0
230
1
100
AcDbArc
50
-90
51
0
0
LINE
5
106
100
AcDbEntity
8
0
100
AcDbLine
10
-230.02480000000003
20
177.9374
30
0
11
-243.02480000000003
21
177.9374
31
0
0
LINE
5
107
100
AcDbEntity
8
0
100
AcDbLine
10
-243.02480000000003
20
191.937399
30
0
11
-230.02480000000003
21
191.937399
31
0
0
LINE
5
108
100
AcDbEntity
8
0
100
AcDbLine
10
-230.02480000000003
20
196.98740000000001
30
0
11
-243.02480000000003
21
196.98740000000001
31
0
0
LWPOLYLINE
5
109
100
AcDbEntity
8
0
100
AcDbPolyline
90
8
70
1
43
0.0
10
-284.11999999999989
20
249.19
42
-0.41421356237309503
10
-282.00324799999999
20
251.3065739999999
10
-191.29425900000001
20
251.35433300000003
42
-0.41421356237309503
10
-189.177685
20
249.23758100000001
10
-189.17759500000003
20
177.80000000000001
42
-0.41421356237309015
10
-191.29434700000002
20
175.683426
10
-282.00999999999999
20
175.72
42
-0.41421356237309503
10
-284.12657400000001
20
177.83675200000002
0
LWPOLYLINE
5
110
100
AcDbEntity
8
0
100
AcDbPolyline
90
8
70
1
43
0.0
10
-191.9248
20
249.0874
42
-0.41421356237309503
10
-191.4248
20
248.5874
10
-191.4248
20
235.5874
42
-0.41421356237309503
10
-191.9248
20
235.0874
10
-204.9248
20
235.0874
42
-0.41421356237309503
10
-205.4248
20
235.5874
10
-205.4248
20
248.5874
42
-0.41421356237309503
10
-204.9248
20
249.0874
0
LWPOLYLINE
5
111
100
AcDbEntity
8
0
100
AcDbPolyline
90
8
70
1
43
0.0
10
-223.97480000000002
20
235.0874
42
-0.41421356237309503
10
-224.47480000000002
20
235.5874
10
-224.47480000000002
20
248.5874
42
-0.41421356237309503
10
-223.97480000000002
20
249.0874
10
-210.97480000000002
20
249.0874
42
-0.41421356237309503
10
-210.47480000000002
20
248.5874
10
-210.47480000000002
20
235.5874
42
-0.41421356237309503
10
-210.97480000000002
20
235.0874
0
ARC
5
112
100
AcDbEntity
8
0
100
AcDbCircle
10
-243.02480000000003
20
248.5874
30
0
40
0.50000000000000711
210
0
220
-0
230
1
100
AcDbArc
50
90
51
180
0
LINE
5
113
100
AcDbEntity
8
0
100
AcDbLine
10
-243.02480000000003
20
249.0874
30
0
11
-239.52480000000003
21
249.0874
31
0
0
LINE
5
114
100
AcDbEntity
8
0
100
AcDbLine
10
-233.5248
20
249.0874
30
0
11
-230.02480000000003
21
249.0874
31
0
0
ARC
5
115
100
AcDbEntity
8
0
100
AcDbCircle
10
-230.02480000000003
20
248.5874
30
0
40
0.50000000000000711
210
0
220
0
230
1
100
AcDbArc
50
0
51
90
0
LINE
5
116
100
AcDbEntity
8
0
100
AcDbLine
10
-229.52480000000003
20
248.5874
30
0
11
-229.52480000000003
21
235.5874
31
0
0
ARC
5
117
100
AcDbEntity
8
0
100
AcDbCircle
10
-230.02480000000003
20
235.5874
30
0
40
0.50000000000000711
210
0
220
0
230
1
100
AcDbArc
50
-90
51
0
0
LINE
5
118
100
AcDbEntity
8
0
100
AcDbLine
10
-230.02480000000003
20
235.0874
30
0
11
-233.02480000000003
21
235.08740000000003
31
0
0
LINE
5
119
100
AcDbEntity
8
0
100
AcDbLine
10
-233.02480000000003
20
235.08740000000003
30
0
11
-233.02480000000003
21
234.58740000000003
31
0
0
ARC
5
120
100
AcDbEntity
8
0
100
AcDbCircle
10
-233.5248
20
234.58740000000003
30
0
40
0.50000000000000711
210
0
220
0
230
1
100
AcDbArc
50
-90
51
0
0
ARC
5
121
100
AcDbEntity
8
0
100
AcDbCircle
10
-239.52480000000003
20
234.58740000000003
30
0
40
0.50000000000000711
210
0
220
0
230
1
100
AcDbArc
50
180
51
270
0
LINE
5
122
100
AcDbEntity
8
0
100
AcDbLine
10
-240.02480000000003
20
234.58740000000003
30
0
11
-240.02480000000003
21
235.08740000000003
31
0
0
LINE
5
123
100
AcDbEntity
8
0
100
AcDbLine
10
-240.02480000000003
20
235.08740000000003
30
0
11
-243.02480000000003
21
235.08740000000003
31
0
0
ARC
5
124
100
AcDbEntity
8
0
100
AcDbCircle
10
-243.02480000000003
20
235.5874
30
0
40
0.50000000000000711
210
0
220
0
230
1
100
AcDbArc
50
180
51
270
0
LINE
5
125
100
AcDbEntity
8
0
100
AcDbLine
10
-243.52480000000003
20
235.5874
30
0
11
-243.52480000000003
21
248.5874
31
0
0
LWPOLYLINE
5
126
100
AcDbEntity
8
0
100
AcDbPolyline
90
28
70
1
43
0.0
10
-277.62479999999999
20
234.0874
42
-0.41421356237309503
10
-278.12479999999999
20
234.58740000000003
10
-278.12479999999999
20
235.08740000000003
10
-281.12479999999999
20
235.0874
42
-0.41421356237309503
10
-281.62480000000005
20
235.5874
10
-281.62480000000005
20
248.5874
42
-0.41421356237309503
10
-281.12479999999999
20
249.0874
10
-277.62479999999999
20
249.0874
10
-271.62480000000005
20
249.0874
10
-268.12480100000005
20
249.0874
42
-0.41421356237309503
10
-267.62480099999999
20
248.5874
10
-267.62480100003597
20
243.22492389514474
42
-0.50288483994599242
10
-262.5747999999877
20
241.911822889505
10
-262.57479999999998
20
248.5874
42
-0.41421356237309503
10
-262.07479999999998
20
249.0874
10
-249.07480000000004
20
249.0874
42
-0.41421356237309503
10
-248.57480000000004
20
248.5874
10
-248.57480000000004
20
235.5874
42
-0.41421356237309503
10
-249.07480000000004
20
235.0874
10
-262.07479999999998
20
235.0874
42
-0.41421356237309503
10
-262.57479999999998
20
235.5874
10
-262.57480000002249
20
239.47367711040911
42
-0.50288483993102107
10
-267.62480099998714
20
238.16057610481602
10
-267.62480099999999
20
235.5874
42
-0.41421356237309503
10
-268.12480100000005
20
235.0874
10
-271.12479999999999
20
235.08740000000003
10
-271.12479999999999
20
234.58740000000003
42
-0.41421356237309503
10
-271.62480000000005
20
234.0874
0
LWPOLYLINE
5
127
100
AcDbEntity
8
0
100
AcDbPolyline
90
8
70
1
43
0.0
10
-191.4248
20
216.53739999999999
42
-0.41421356237309503
10
-191.9248
20
216.03739999999999
10
-204.9248
20
216.03739999999999
42
-0.41421356237309503
10
-205.4248
20
216.53739999999999
10
-205.4248
20
229.53739999999999
42
-0.41421356237309503
10
-204.9248
20
230.03739999999999
10
-191.9248
20
230.03739999999999
42
-0.41421356237309503
10
-191.4248
20
229.53739999999999
0
LWPOLYLINE
5
128
100
AcDbEntity
8
0
100
AcDbPolyline
90
10
70
1
43
0.0
10
-224.47480000000002
20
229.53739999999999
42
-0.41421356237309503
10
-223.97480000000002
20
230.03739999999999
10
-221.78885389594652
20
230.03740000000167
42
-0.77914130912352719
10
-215.48614610405286
20
230.03739999999931
10
-210.97480000000002
20
230.03739999999999
42
-0.41421356237309503
10
-210.47480000000002
20
229.53739999999999
10
-210.47480000000002
20
216.53739999999999
42
-0.41421356237309503
10
-210.97480000000002
20
216.03739999999999
10
-223.97480000000002
20
216.03739999999999
42
-0.41421356237309503
10
-224.47480000000002
20
216.53739999999999
0
LWPOLYLINE
5
129
100
AcDbEntity
8
0
100
AcDbPolyline
90
8
70
1
43
0.0
10
-243.52480000000003
20
229.53739999999999
42
-0.41421356237309503
10
-243.02480000000003
20
230.03739999999999
10
-230.02480000000003
20
230.03739999999999
42
-0.41421356237309503
10
-229.52480000000003
20
229.53739999999999
10
-229.52480000000003
20
216.53739999999999
42
-0.41421356237309503
10
-230.02480000000003
20
216.03739999999999
10
-243.02480000000003
20
216.03739999999999
42
-0.41421356237309503
10
-243.52480000000003
20
216.53739999999999
0
LWPOLYLINE
5
130
100
AcDbEntity
8
0
100
AcDbPolyline
90
8
70
1
43
0.0
10
-262.07479999999998
20
216.03739999999999
42
-0.41421356237309503
10
-262.57479999999998
20
216.53739999999999
10
-262.57479999999998
20
229.53739999999999
42
-0.41421356237309503
10
-262.07479999999998
20
230.03739999999999
10
-249.07480000000004
20
230.03739999999999
42
-0.41421356237309503
10
-248.57480000000004
20
229.53739999999999
10
-248.57480000000004
20
216.53739999999999
42
-0.41421356237309503
10
-249.07480000000004
20
216.03739999999999
0
LWPOLYLINE
5
131
100
AcDbEntity
8
0
100
AcDbPolyline
90
8
70
1
43
0.0
10
-268.12480100000005
20
230.03739999999999
42
-0.41421356237309503
10
-267.62480099999999
20
229.53739999999999
10
-267.62480099999999
20
216.53739999999999
42
-0.41421356237309503
10
-268.12480100000005
20
216.03739999999999
10
-281.12479999999999
20
216.03739999999999
42
-0.41421356237309503
10
-281.62480000000005
20
216.53739999999999
10
-281.62480000000005
20
229.53739999999999
42
-0.41421356237309503
10
-281.12479999999999
20
230.03739999999999
0
LWPOLYLINE
5
132
100
AcDbEntity
8
0
100
AcDbPolyline
90
8
70
1
43
0.0
10
-205.4248
20
210.48740000000004
42
-0.41421356237309503
10
-204.9248
20
210.98740000000004
10
-191.9248
20
210.98740000000004
42
-0.41421356237309503
10
-191.4248
20
210.48740000000004
10
-191.4248
20
197.48740000000001
42
-0.41421356237309503
10
-191.9248
20
196.98740000000001
10
-204.9248
20
196.98740000000001
42
-0.41421356237309503
10
-205.4248
20
197.48740000000001
0
LWPOLYLINE
5
133
100
AcDbEntity
8
0
100
AcDbPolyline
90
8
70
1
43
0.0
10
-262.57479999999998
20
210.48740000000004
42
-0.41421356237309503
10
-262.07479999999998
20
210.98740000000004
10
-249.07480000000004
20
210.98740000000004
42
-0.41421356237309503
10
-248.57480000000004
20
210.48740000000004
10
-248.57480000000004
20
197.48740000000001
42
-0.41421356237309503
10
-249.07480000000004
20
196.98740000000001
10
-262.07479999999998
20
196.98740000000001
42
-0.41421356237309503
10
-262.57479999999998
20
197.48740000000001
0
LWPOLYLINE
5
134
100
AcDbEntity
8
0
100
AcDbPolyline
90
8
70
1
43
0.0
10
-267.62480099999999
20
197.48740000000001
42
-0.41421356237309503
10
-268.12480100000005
20
196.98740000000001
10
-281.12479999999999
20
196.98740000000001
42
-0.41421356237309503
10
-281.62480000000005
20
197.48740000000001
10
-281.62480000000005
20
210.48740000000004
42
-0.41421356237309503
10
-281.12479999999999
20
210.98740000000004
10
-268.12480100000005
20
210.98740000000004
42
-0.41421356237309503
10
-267.62480099999999
20
210.48740000000004
0
LWPOLYLINE
5
135
100
AcDbEntity
8
0
100
AcDbPolyline
90
8
70
1
43
0.0
10
-205.4248
20
191.437399
42
-0.41421356237309503
10
-204.9248
20
191.937399
10
-191.9248
20
191.937399
42
-0.41421356237309503
10
-191.4248
20
191.437399
10
-191.4248
20
178.4374
42
-0.41421356237309503
10
-191.9248
20
177.9374
10
-204.9248
20
177.9374
42
-0.41421356237309503
10
-205.4248
20
178.4374
0
LWPOLYLINE
5
136
100
AcDbEntity
8
0
100
AcDbPolyline
90
20
70
1
43
0.0
10
-210.97480000000002
20
191.937399
42
-0.41421356237309503
10
-210.47480000000002
20
191.437399
10
-210.47480000000002
20
178.4374
42
-0.41421356237309503
10
-210.97480000000002
20
177.9374
10
-223.97480000000002
20
177.9374
42
-0.41421356237309503
10
-224.47480000000002
20
178.4374
10
-224.47480000000002
20
191.437399
42
-0.41421356237309503
10
-223.97480000000002
20
191.937399
10
-222.2758233587474
20
191.93739900000324
42
-0.47676202456359013
10
-222.29149663521446
20
196.98740000000552
10
-223.97480000000002
20
196.98740000000001
42
-0.41421356237309503
10
-224.47480000000002
20
197.48740000000001
10
-224.47480000000002
20
210.48740000000004
42
-0.41421356237309503
10
-223.97480000000002
20
210.98740000000004
10
-210.97480000000002
20
210.98740000000004
42
-0.41421356237309503
10
-210.47480000000002
20
210.48740000000004
10
-210.47480000000002
20
197.48740000000001
42
-0.41421356237309503
10
-210.97480000000002
20
196.98740000000001
10
-218.18350336477954
20
196.9874000000006
42
-0.47676202456285011
10
-218.19917664125262
20
191.93739900000324
0
LWPOLYLINE
5
137
100
AcDbEntity
8
0
100
AcDbPolyline
90
8
70
1
43
0.0
10
-249.07480000000004
20
191.937399
42
-0.41421356237309503
10
-248.57480000000004
20
191.437399
10
-248.57480000000004
20
178.4374
42
-0.41421356237309503
10
-249.07480000000004
20
177.9374
10
-262.07479999999998
20
177.9374
42
-0.41421356237309503
10
-262.57479999999998
20
178.4374
10
-262.57479999999998
20
191.437399
42
-0.41421356237309503
10
-262.07479999999998
20
191.937399
0
LWPOLYLINE
5
138
100
AcDbEntity
8
0
100
AcDbPolyline
90
8
70
1
43
0.0
10
-229.52480000000003
20
178.4374
42
-0.41421356237309503
10
-230.02480000000003
20
177.9374
10
-243.02480000000003
20
177.9374
42
-0.41421356237309503
10
-243.52480000000003
20
178.4374
10
-243.52480000000003
20
191.437399
42
-0.41421356237309503
10
-243.02480000000003
20
191.937399
10
-230.02480000000003
20
191.937399
42
-0.41421356237309503
10
-229.52480000000003
20
191.437399
0
LWPOLYLINE
5
139
100
AcDbEntity
8
0
100
AcDbPolyline
90
8
70
1
43
0.0
10
-243.52480000000003
20
210.48740000000004
42
-0.41421356237309503
10
-243.02480000000003
20
210.98740000000004
10
-230.02480000000003
20
210.98740000000004
42
-0.41421356237309503
10
-229.52480000000003
20
210.48740000000004
10
-229.52480000000003
20
197.48740000000001
42
-0.41421356237309503
10
-230.02480000000003
20
196.98740000000001
10
-243.02480000000003
20
196.98740000000001
42
-0.41421356237309503
10
-243.52480000000003
20
197.48740000000001
0
LWPOLYLINE
5
140
100
AcDbEntity
8
0
100
AcDbPolyline
90
8
70
1
43
0.0
10
-267.62480099999999
20
178.4374
42
-0.41421356237309503
10
-268.12480100000005
20
177.9374
10
-281.12479999999999
20
177.9374
42
-0.41421356237309503
10
-281.62480000000005
20
178.4374
10
-281.62480000000005
20
191.437399
42
-0.41421356237309503
10
-281.12479999999999
20
191.937399
10
-268.12480100000005
20
191.937399
42
-0.41421356237309503
10
-267.62480099999999
20
191.437399
0
LINE
5
141
100
AcDbEntity
8
0
100
AcDbLine
10
-233.5248
20
234.0874
30
0
11
-239.52480000000003
21
234.0874
31
0
0
LINE
5
142
100
AcDbEntity
8
0
100
AcDbLine
10
-233.5248
20
249.0874
30
0
11
-239.52480000000003
21
249.0874
31
0
0
ENDSEC
0
SECTION
2
OBJECTS
0
DICTIONARY
5
C
100
AcDbDictionary
3
ACAD_GROUP
350
D
3
ACAD_MLINESTYLE
350
17
0
DICTIONARY
5
D
100
AcDbDictionary
0
DICTIONARY
5
1A
330
C
100
AcDbDictionary
0
DICTIONARY
5
17
100
AcDbDictionary
0
ENDSEC
0
EOF
