0
SECTION
2
HEADER
9
$INSUNITS
70
4
9
$ACADVER
1
AC1014
9
$HANDSEED
5
FFFF
0
ENDSEC
0
SECTION
2
TABLES
0
TABLE
2
VPORT
5
8
100
AcDbSymbolTable
0
ENDTAB
0
TABLE
2
LTYPE
5
5
100
AcDbSymbolTable
0
LTYPE
5
14
100
AcDbSymbolTableRecord
100
AcDbLinetypeTableRecord
2
BYBLOCK
70
0
0
LTYPE
5
15
100
AcDbSymbolTableRecord
100
AcDbLinetypeTableRecord
2
BYLAYER
70
0
0
ENDTAB
0
TABLE
2
LAYER
5
2
100
AcDbSymbolTable
70
2
0
LAYER
5
50
100
AcDbSymbolTableRecord
100
AcDbLayerTableRecord
2
0
70
0
6
CONTINUOUS
0
ENDTAB
0
TABLE
2
STYLE
5
3
100
AcDbSymbolTable
70
1
0
STYLE
5
11
100
AcDbSymbolTableRecord
100
AcDbTextStyleTableRecord
2
STANDARD
70
0
0
ENDTAB
0
TABLE
2
VIEW
5
6
100
AcDbSymbolTable
70
0
0
ENDTAB
0
TABLE
2
UCS
5
7
100
AcDbSymbolTable
70
0
0
ENDTAB
0
TABLE
2
APPID
5
9
100
AcDbSymbolTable
70
2
0
APPID
5
12
100
AcDbSymbolTableRecord
100
AcDbRegAppTableRecord
2
ACAD
70
0
0
ENDTAB
0
TABLE
2
DIMSTYLE
5
A
100
AcDbSymbolTable
70
1
0
ENDTAB
0
TABLE
2
BLOCK_RECORD
5
1
100
AcDbSymbolTable
70
1
0
BLOCK_RECORD
5
1F
100
AcDbSymbolTableRecord
100
AcDbBlockTableRecord
2
*MODEL_SPACE
0
BLOCK_RECORD
5
1B
100
AcDbSymbolTableRecord
100
AcDbBlockTableRecord
2
*PAPER_SPACE
0
ENDTAB
0
ENDSEC
0
SECTION
2
BLOCKS
0
BLOCK
5
20
100
AcDbEntity
100
AcDbBlockBegin
2
*MODEL_SPACE
0
ENDBLK
5
21
100
AcDbEntity
100
AcDbBlockEnd
0
BLOCK
5
1C
100
AcDbEntity
100
AcDbBlockBegin
2
*PAPER_SPACE
0
ENDBLK
5
1D
100
AcDbEntity
100
AcDbBlockEnd
0
ENDSEC
0
SECTION
2
ENTITIES
0
LWPOLYLINE
5
100
100
AcDbEntity
8
0
100
AcDbPolyline
90
18
70
1
43
0.0
10
-242.36250000000001
20
75.174999999999983
10
-242.36250000000001
20
1.0250000000000006
42
0.41421356237310203
10
-241.86250000000001
20
0.52499999999999281
10
-241.79585026919
20
0.5250000000000008
42
-0.26794919243113929
10
-240.06379946162113
20
-0.47500000000006481
10
-237.75439838486199
20
-4.4750000000000112
10
-229.68260161513803
20
-4.4750000000000085
10
-227.37320053837905
20
-0.47499999999994769
42
-0.26794919243111809
10
-225.64114973081004
20
0.52499999999999714
10
-148.16250026964428
20
0.52500000000000213
10
-148.16250026964431
20
75.675000000000011
10
-225.64114973081004
20
75.674999999999983
42
-0.26794919243112497
10
-227.37320053837891
20
76.675000000000068
10
-229.68260161513803
20
80.675000000000026
10
-237.75439838486199
20
80.675000000000026
10
-240.06379946162099
20
76.675000000000026
42
-0.26794919243100146
10
-241.795850269189
20
75.674999999999983
10
-241.86250000000001
20
75.674999999999969
42
0.41421356237312623
0
LWPOLYLINE
5
101
100
AcDbEntity
8
0
100
AcDbPolyline
90
8
70
1
43
0.0
10
-164.16249999999997
20
16.025000000000009
42
-0.41421356237309503
10
-163.66250000000002
20
16.524999999999999
10
-150.66250000000002
20
16.524999999999999
42
-0.41421356237309503
10
-150.16250000000002
20
16.024999999999991
10
-150.16250000000002
20
3.0250000000000021
42
-0.41421356237309503
10
-150.66250000000002
20
2.524999999999995
10
-163.66250000000002
20
2.524999999999995
42
-0.41421356237309503
10
-164.16250000000002
20
3.0250000000000021
0
LWPOLYLINE
5
102
100
AcDbEntity
8
0
100
AcDbPolyline
90
8
70
1
43
0.0
10
-169.71250000000001
20
16.525000000000016
42
-0.41421356237309503
10
-169.21250000000001
20
16.025000000000009
10
-169.21250000000001
20
3.0250000000000021
42
-0.41421356237309503
10
-169.71250000000001
20
2.524999999999995
10
-182.71250000000003
20
2.524999999999995
42
-0.41421356237309503
10
-183.21250000000003
20
3.0250000000000021
10
-183.21249999999998
20
16.025000000000009
42
-0.41421356237309503
10
-182.71250000000003
20
16.524999999999999
0
LWPOLYLINE
5
103
100
AcDbEntity
8
0
100
AcDbPolyline
90
8
70
1
43
0.0
10
-150.16250000000002
20
22.074999999999996
42
-0.41421356237309503
10
-150.66250000000002
20
21.575000000000006
10
-163.66250000000002
20
21.574999999999989
42
-0.41421356237309503
10
-164.16250000000002
20
22.074999999999996
10
-164.16250000000002
20
35.075000000000003
42
-0.41421356237309503
10
-163.66250000000002
20
35.57500000000001
10
-150.66250000000002
20
35.57500000000001
42
-0.41421356237309503
10
-150.16250000000002
20
35.075000000000003
0
LWPOLYLINE
5
104
100
AcDbEntity
8
0
100
AcDbPolyline
90
8
70
1
43
0.0
10
-201.76250000000005
20
2.5250000000000306
42
-0.41421356237309503
10
-202.26249999999999
20
3.0250000000000021
10
-202.26249999999999
20
16.025000000000009
42
-0.41421356237309503
10
-201.76250000000005
20
16.524999999999999
10
-188.76250000000002
20
16.525000000000016
42
-0.41421356237309503
10
-188.26250000000002
20
16.025000000000009
10
-188.26250000000002
20
3.0250000000000021
42
-0.41421356237309503
10
-188.76250000000002
20
2.5250000000000128
0
LWPOLYLINE
5
105
100
AcDbEntity
8
0
100
AcDbPolyline
90
8
70
1
43
0.0
10
-183.21250000000003
20
35.075000000000003
42
-0.41421356237309503
10
-182.71250000000003
20
35.57500000000001
10
-169.71250000000001
20
35.57500000000001
42
-0.41421356237309503
10
-169.21250000000001
20
35.075000000000003
10
-169.21250000000001
20
22.074999999999996
42
-0.41421356237309503
10
-169.71250000000001
20
21.575000000000006
10
-182.71250000000003
20
21.575000000000024
42
-0.41421356237309503
10
-183.21249999999998
20
22.074999999999996
0
LWPOLYLINE
5
106
100
AcDbEntity
8
0
100
AcDbPolyline
90
8
70
1
43
0.0
10
-207.8125
20
2.5250000000000128
10
-220.8125
20
2.524999999999995
42
-0.41421356237309503
10
-221.3125
20
3.0250000000000021
10
-221.3125
20
16.025000000000009
42
-0.41421356237309503
10
-220.8125
20
16.524999999999999
10
-207.8125
20
16.524999999999981
42
-0.41421356237309503
10
-207.31250000000003
20
16.025000000000009
10
-207.31250000000003
20
3.0250000000000021
42
-0.41421356237309503
0
LWPOLYLINE
5
107
100
AcDbEntity
8
0
100
AcDbPolyline
90
8
70
1
43
0.0
10
-226.86250000000001
20
16.525000000000016
42
-0.41421356237309503
10
-226.36250000000001
20
16.025000000000009
10
-226.36250000000004
20
3.0250000000000021
42
-0.41421356237309503
10
-226.86250000000001
20
2.5250000000000128
10
-239.86250000000001
20
2.5250000000000128
42
-0.41421356237309503
10
-240.36250000000001
20
3.0250000000000199
10
-240.36250000000001
20
16.025000000000009
42
-0.41421356237309503
10
-239.86250000000001
20
16.525000000000016
0
LWPOLYLINE
5
108
100
AcDbEntity
8
0
100
AcDbPolyline
90
8
70
1
43
0.0
10
-188.76250000000002
20
35.57500000000001
42
-0.41421356237309503
10
-188.26250000000002
20
35.075000000000003
10
-188.26250000000002
20
22.074999999999996
42
-0.41421356237309503
10
-188.76250000000002
20
21.575000000000006
10
-201.76250000000005
20
21.575000000000024
42
-0.41421356237310542
10
-202.26249999999999
20
22.075000000000014
10
-202.26250000000005
20
35.075000000000003
42
-0.41421356237309503
10
-201.76250000000005
20
35.57500000000001
0
LWPOLYLINE
5
109
100
AcDbEntity
8
0
100
AcDbPolyline
90
8
70
1
43
0.0
10
-188.76249999999999
20
54.624999999999986
42
-0.41421356237309503
10
-188.26250000000002
20
54.125000000000014
10
-188.26249999999999
20
41.125000000000007
42
-0.41421356237309503
10
-188.76249999999999
20
40.625
10
-201.76250000000005
20
40.625000000000036
42
-0.41421356237309503
10
-202.26249999999999
20
41.125000000000007
10
-202.26250000000005
20
54.125000000000014
42
-0.41421356237309503
10
-201.76250000000005
20
54.625000000000021
0
LWPOLYLINE
5
110
100
AcDbEntity
8
0
100
AcDbPolyline
90
8
70
1
43
0.0
10
-220.8125
20
54.625000000000021
10
-207.8125
20
54.624999999999986
42
-0.41421356237309503
10
-207.31250000000003
20
54.125000000000014
10
-207.3125
20
41.125000000000007
42
-0.41421356237309503
10
-207.8125
20
40.625
10
-220.8125
20
40.625
42
-0.41421356237309503
10
-221.3125
20
41.125000000000007
10
-221.3125
20
54.125000000000014
42
-0.41421356237309503
0
LWPOLYLINE
5
111
100
AcDbEntity
8
0
100
AcDbPolyline
90
8
70
1
43
0.0
10
-183.21249999999998
20
54.125000000000014
42
-0.41421356237309503
10
-182.71250000000003
20
54.625
10
-169.71250000000001
20
54.625000000000021
42
-0.41421356237309503
10
-169.21250000000001
20
54.125000000000014
10
-169.21250000000001
20
41.125000000000007
42
-0.41421356237309503
10
-169.71250000000001
20
40.625
10
-182.71250000000003
20
40.625
42
-0.41421356237309503
10
-183.21250000000003
20
41.125000000000007
0
LWPOLYLINE
5
112
100
AcDbEntity
8
0
100
AcDbPolyline
90
8
70
1
43
0.0
10
-221.3125
20
35.075000000000003
42
-0.41421356237309503
10
-220.8125
20
35.57500000000001
10
-207.8125
20
35.574999999999974
42
-0.41421356237309503
10
-207.31250000000003
20
35.075000000000003
10
-207.3125
20
22.075000000000014
42
-0.41421356237309503
10
-207.8125
20
21.575000000000006
10
-220.8125
20
21.575000000000006
42
-0.41421356237309503
10
-221.3125
20
22.075000000000014
0
LWPOLYLINE
5
113
100
AcDbEntity
8
0
100
AcDbPolyline
90
8
70
1
43
0.0
10
-150.66249999999999
20
54.625
42
-0.41421356237309503
10
-150.16250000000002
20
54.125000000000014
10
-150.16250000000002
20
41.125000000000007
42
-0.41421356237309503
10
-150.66250000000002
20
40.625
10
-163.66250000000002
20
40.625
42
-0.41421356237309503
10
-164.16250000000002
20
41.125000000000007
10
-164.16249999999997
20
54.125000000000014
42
-0.41421356237309503
10
-163.66250000000002
20
54.625
0
LWPOLYLINE
5
114
100
AcDbEntity
8
0
100
AcDbPolyline
90
8
70
1
43
0.0
10
-226.36250000000001
20
35.075000000000003
10
-226.36250000000001
20
22.075000000000014
42
-0.41421356237309503
10
-226.86250000000001
20
21.575000000000006
10
-239.86250000000001
20
21.575000000000006
42
-0.41421356237309503
10
-240.36250000000001
20
22.075000000000014
10
-240.36250000000001
20
35.075000000000017
42
-0.41421356237309503
10
-239.86250000000001
20
35.57500000000001
10
-226.86250000000001
20
35.57500000000001
42
-0.41421356237309503
0
LWPOLYLINE
5
115
100
AcDbEntity
8
0
100
AcDbPolyline
90
35
70
1
43
0.0
10
-183.21249999999998
20
60.174999999999997
10
-183.21250000000003
20
73.174999999999997
42
-0.41421356237309503
10
-182.71250000000003
20
73.674999999999997
10
-181.62550000000005
20
73.674999999999997
10
-175.62550000000002
20
73.674999999999997
10
-173.1875
20
73.674999999999997
10
-169.71250000000001
20
73.674999999999997
10
-163.66250000000002
20
73.674999999999997
10
-160.1875
20
73.674999999999997
10
-160.16249999999999
20
73.674999999999997
10
-157.74950000000001
20
73.674999999999997
10
-154.16250000000002
20
73.674999999999997
10
-151.74950000000001
20
73.674999999999997
10
-150.66249999999999
20
73.674999999999983
42
-0.41421356237309503
10
-150.16250000000002
20
73.174999999999997
10
-150.16250000000002
20
60.174999999999997
42
-0.41421356237309503
10
-150.66249999999999
20
59.675000000000011
10
-151.24950000000001
20
59.675000000000011
10
-151.24950000000001
20
59.175000000000004
42
-0.41421356237309503
10
-151.74950000000001
20
58.674999999999997
10
-154.16250000000002
20
58.674999999999997
10
-157.74950000000001
20
58.674999999999997
10
-160.16249999999999
20
58.674999999999962
42
-0.41421356237309503
10
-160.66250000000002
20
59.175000000000004
10
-160.66250000000002
20
59.675000000000011
10
-163.66250000000002
20
59.675000000000011
10
-169.71250000000001
20
59.675000000000011
10
-173.1875
20
59.675000000000011
10
-175.12550000000002
20
59.675000000000011
10
-175.12550000000002
20
59.175000000000004
42
-0.41421356237309503
10
-175.62550000000002
20
58.674999999999997
10
-181.62550000000005
20
58.675000000000033
42
-0.41421356237309503
10
-182.12549999999999
20
59.175000000000004
10
-182.12549999999999
20
59.675000000000011
10
-182.71250000000003
20
59.675000000000026
42
-0.41421356237309503
0
LWPOLYLINE
5
116
100
AcDbEntity
8
0
100
AcDbPolyline
90
16
70
1
43
0.0
10
-198.26250000000002
20
73.675000000000011
10
-192.26249999999999
20
73.675000000000011
10
-188.76249999999999
20
73.674999999999983
42
-0.41421356237309503
10
-188.26250000000002
20
73.175000000000011
10
-188.26249999999999
20
60.175000000000018
42
-0.41421356237309503
10
-188.76249999999999
20
59.675000000000011
10
-191.76250000000005
20
59.675000000000011
10
-191.76250000000005
20
59.175000000000004
42
-0.41421356237309503
10
-192.26249999999999
20
58.675000000000011
10
-198.26250000000002
20
58.675000000000033
42
-0.41421356237309503
10
-198.76249999999999
20
59.175000000000004
10
-198.76250000000002
20
59.675000000000011
10
-201.76250000000005
20
59.675000000000047
42
-0.41421356237309503
10
-202.26249999999999
20
60.175000000000018
10
-202.26250000000005
20
73.175000000000011
42
-0.41421356237309503
10
-201.76250000000005
20
73.675000000000011
0
LWPOLYLINE
5
117
100
AcDbEntity
8
0
100
AcDbPolyline
90
8
70
1
43
0.0
10
-226.86250000000001
20
40.625
10
-239.86250000000001
20
40.625
42
-0.41421356237309503
10
-240.36250000000001
20
41.125000000000007
10
-240.36250000000001
20
54.125000000000014
42
-0.41421356237309503
10
-239.86250000000001
20
54.625000000000021
10
-226.86250000000001
20
54.625000000000021
42
-0.41421356237309503
10
-226.36250000000001
20
54.125000000000014
10
-226.36250000000001
20
41.125000000000007
42
-0.41421356237309503
0
LWPOLYLINE
5
118
100
AcDbEntity
8
0
100
AcDbPolyline
90
8
70
1
43
0.0
10
-207.8125
20
73.674999999999983
42
-0.41421356237309503
10
-207.31250000000003
20
73.175000000000011
10
-207.3125
20
60.175000000000018
42
-0.41421356237309503
10
-207.8125
20
59.675000000000011
10
-220.8125
20
59.675000000000011
42
-0.41421356237309503
10
-221.3125
20
60.175000000000018
10
-221.3125
20
73.175000000000011
42
-0.41421356237309503
10
-220.8125
20
73.675000000000011
0
LWPOLYLINE
5
119
100
AcDbEntity
8
0
100
AcDbPolyline
90
8
70
1
43
0.0
10
-240.36250000000001
20
60.175000000000018
10
-240.36249999999998
20
73.175000000000011
42
-0.41421356237309503
10
-239.86249999999998
20
73.675000000000011
10
-226.86250000000001
20
73.675000000000011
42
-0.41421356237309503
10
-226.36250000000001
20
73.175000000000011
10
-226.36250000000001
20
60.175000000000018
42
-0.41421356237309503
10
-226.86250000000001
20
59.675000000000011
10
-239.86250000000001
20
59.675000000000011
42
-0.41421356237309503
0
ENDSEC
0
SECTION
2
OBJECTS
0
DICTIONARY
5
C
100
AcDbDictionary
3
ACAD_GROUP
350
D
3
ACAD_MLINESTYLE
350
17
0
DICTIONARY
5
D
100
AcDbDictionary
0
DICTIONARY
5
1A
330
C
100
AcDbDictionary
0
DICTIONARY
5
17
100
AcDbDictionary
0
ENDSEC
0
EOF
