0
SECTION
2
HEADER
9
$INSUNITS
70
4
9
$ACADVER
1
AC1014
9
$HANDSEED
5
FFFF
0
ENDSEC
0
SECTION
2
TABLES
0
TABLE
2
VPORT
5
8
100
AcDbSymbolTable
0
ENDTAB
0
TABLE
2
LTYPE
5
5
100
AcDbSymbolTable
0
LTYPE
5
14
100
AcDbSymbolTableRecord
100
AcDbLinetypeTableRecord
2
BYBLOCK
70
0
0
LTYPE
5
15
100
AcDbSymbolTableRecord
100
AcDbLinetypeTableRecord
2
BYLAYER
70
0
0
ENDTAB
0
TABLE
2
LAYER
5
2
100
AcDbSymbolTable
70
2
0
LAYER
5
50
100
AcDbSymbolTableRecord
100
AcDbLayerTableRecord
2
0
70
0
6
CONTINUOUS
0
ENDTAB
0
TABLE
2
STYLE
5
3
100
AcDbSymbolTable
70
1
0
STYLE
5
11
100
AcDbSymbolTableRecord
100
AcDbTextStyleTableRecord
2
STANDARD
70
0
0
ENDTAB
0
TABLE
2
VIEW
5
6
100
AcDbSymbolTable
70
0
0
ENDTAB
0
TABLE
2
UCS
5
7
100
AcDbSymbolTable
70
0
0
ENDTAB
0
TABLE
2
APPID
5
9
100
AcDbSymbolTable
70
2
0
APPID
5
12
100
AcDbSymbolTableRecord
100
AcDbRegAppTableRecord
2
ACAD
70
0
0
ENDTAB
0
TABLE
2
DIMSTYLE
5
A
100
AcDbSymbolTable
70
1
0
ENDTAB
0
TABLE
2
BLOCK_RECORD
5
1
100
AcDbSymbolTable
70
1
0
BLOCK_RECORD
5
1F
100
AcDbSymbolTableRecord
100
AcDbBlockTableRecord
2
*MODEL_SPACE
0
BLOCK_RECORD
5
1B
100
AcDbSymbolTableRecord
100
AcDbBlockTableRecord
2
*PAPER_SPACE
0
ENDTAB
0
ENDSEC
0
SECTION
2
BLOCKS
0
BLOCK
5
20
100
AcDbEntity
100
AcDbBlockBegin
2
*MODEL_SPACE
0
ENDBLK
5
21
100
AcDbEntity
100
AcDbBlockEnd
0
BLOCK
5
1C
100
AcDbEntity
100
AcDbBlockBegin
2
*PAPER_SPACE
0
ENDBLK
5
1D
100
AcDbEntity
100
AcDbBlockEnd
0
ENDSEC
0
SECTION
2
ENTITIES
0
LWPOLYLINE
5
100
100
AcDbEntity
8
0
100
AcDbPolyline
90
18
70
1
43
0.0
10
-2.8237005383792511
20
-0.47500000000000014
42
-0.26794919243112941
10
-1.0916497308103199
20
0.52500000000000013
10
-1.0250000000000001
20
0.52499999999999702
42
0.4142135623730952
10
-0.52499999999999702
20
1.0250000000000004
10
-0.52499999999999936
20
75.174999999999983
42
0.41421356237339124
10
-1.0250000000005299
20
75.675000000000026
10
-1.0916497308103699
20
75.674999999999983
42
-0.26794919243112442
10
-2.8237005383792511
20
76.675000000000026
10
-5.1331016151377504
20
80.675000000000026
10
-13.204898384862208
20
80.675000000000026
10
-15.514299461620702
20
76.675000000000026
42
-0.26794919243112941
10
-17.246350269189598
20
75.675000000000026
10
-94.724930582958365
20
75.675000000000011
10
-94.724930582958365
20
0.5250000000000109
10
-17.246350269189605
20
0.52499999999999991
42
-0.26794919243112986
10
-15.514299461620734
20
-0.47500000000002263
10
-13.204898384862302
20
-4.4750000000000094
10
-5.1331016151377504
20
-4.4749999999999996
0
LWPOLYLINE
5
101
100
AcDbEntity
8
0
100
AcDbPolyline
90
8
70
1
43
0.0
10
-3.0249999999999999
20
16.524999999999999
42
-0.4142135623730957
10
-2.5249999999999999
20
16.024999999999999
10
-2.5249999999999999
20
3.0249999999999999
42
-0.41421356237309437
10
-3.0249999999999999
20
2.5249999999999999
10
-16.024999999999999
20
2.5249999999999995
42
-0.4142135623730937
10
-16.525000000000002
20
3.0249999999999999
10
-16.525000000000002
20
16.024999999999999
42
-0.4142135623730937
10
-16.024999999999999
20
16.525000000000002
0
LWPOLYLINE
5
102
100
AcDbEntity
8
0
100
AcDbPolyline
90
16
70
1
43
0.0
10
-89.225000000000023
20
59.674999999999976
10
-89.225000000000023
20
59.174999999999969
42
0.41421356237309503
10
-88.725000000000023
20
58.674999999999962
10
-82.725000000000051
20
58.674999999999962
42
0.41421356237309503
10
-82.225000000000037
20
59.174999999999969
10
-82.225000000000037
20
59.674999999999976
10
-79.225000000000037
20
59.674999999999976
42
0.4142135623730846
10
-78.725000000000037
20
60.174999999999947
10
-78.725000000000037
20
73.174999999999955
42
0.41421356237309503
10
-79.225000000000037
20
73.674999999999955
10
-82.725000000000051
20
73.674999999999955
10
-88.725000000000023
20
73.674999999999955
10
-92.225000000000037
20
73.674999999999955
42
0.41421356237309503
10
-92.725000000000051
20
73.174999999999955
10
-92.725000000000051
20
60.174999999999969
42
0.41421356237309503
10
-92.225000000000037
20
59.674999999999976
0
LWPOLYLINE
5
103
100
AcDbEntity
8
0
100
AcDbPolyline
90
8
70
1
43
0.0
10
-73.17500000000004
20
59.674999999999976
10
-60.175000000000026
20
59.674999999999976
42
0.41421356237309503
10
-59.67500000000004
20
60.174999999999969
10
-59.67500000000004
20
73.174999999999955
42
0.41421356237309503
10
-60.175000000000026
20
73.674999999999955
10
-73.17500000000004
20
73.674999999999955
42
0.41421356237309503
10
-73.67500000000004
20
73.174999999999955
10
-73.67500000000004
20
60.174999999999969
42
0.41421356237309503
0
LWPOLYLINE
5
104
100
AcDbEntity
8
0
100
AcDbPolyline
90
8
70
1
43
0.0
10
-35.075000000000031
20
2.524999999999995
10
-22.075000000000014
20
2.524999999999995
42
0.41421356237309503
10
-21.575000000000017
20
3.0250000000000021
10
-21.575000000000017
20
16.024999999999974
42
0.41421356237309503
10
-22.075000000000014
20
16.524999999999981
10
-35.075000000000031
20
16.524999999999981
42
0.41421356237309503
10
-35.575000000000017
20
16.024999999999974
10
-35.575000000000017
20
3.0250000000000021
42
0.41421356237309503
0
LWPOLYLINE
5
105
100
AcDbEntity
8
0
100
AcDbPolyline
90
8
70
1
43
0.0
10
-54.62500000000005
20
54.125
42
-0.41421356237309503
10
-54.125000000000043
20
54.625
10
-41.125000000000036
20
54.624999999999986
42
-0.41421356237309503
10
-40.625000000000043
20
54.125
10
-40.625000000000028
20
41.124999999999986
42
-0.41421356237309503
10
-41.125000000000036
20
40.624999999999986
10
-54.125000000000043
20
40.625
42
-0.41421356237309503
10
-54.625000000000028
20
41.124999999999986
0
LWPOLYLINE
5
106
100
AcDbEntity
8
0
100
AcDbPolyline
90
16
70
1
43
0.0
10
-40.625000000000043
20
60.174999999999997
10
-40.625000000000043
20
73.174999999999969
42
0.41421356237309503
10
-41.125000000000036
20
73.674999999999983
10
-44.625000000000028
20
73.674999999999983
10
-50.625000000000043
20
73.674999999999983
10
-54.125000000000043
20
73.674999999999983
42
0.41421356237309503
10
-54.625000000000028
20
73.174999999999969
10
-54.625000000000028
20
60.174999999999997
42
0.41421356237309503
10
-54.125000000000043
20
59.674999999999997
10
-51.125000000000036
20
59.674999999999997
10
-51.125000000000036
20
59.174999999999983
42
0.41421356237309503
10
-50.625000000000043
20
58.674999999999997
10
-44.625000000000028
20
58.674999999999997
42
0.41421356237309503
10
-44.125000000000021
20
59.174999999999983
10
-44.125000000000021
20
59.674999999999997
10
-41.125000000000036
20
59.674999999999997
42
0.41421356237309503
0
LWPOLYLINE
5
107
100
AcDbEntity
8
0
100
AcDbPolyline
90
8
70
1
43
0.0
10
-22.075000000000024
20
73.674999999999983
42
-0.41421356237309503
10
-21.575000000000024
20
73.174999999999983
10
-21.575000000000017
20
60.174999999999983
42
-0.4142135623730846
10
-22.075000000000024
20
59.674999999999997
10
-35.075000000000045
20
59.675000000000011
42
-0.41421356237309503
10
-35.575000000000038
20
60.174999999999997
10
-35.575000000000053
20
73.174999999999969
42
-0.41421356237309503
10
-35.075000000000045
20
73.674999999999983
0
LWPOLYLINE
5
108
100
AcDbEntity
8
0
100
AcDbPolyline
90
8
70
1
43
0.0
10
-79.225000000000037
20
54.624999999999972
10
-92.225000000000037
20
54.624999999999972
42
0.41421356237309503
10
-92.725000000000051
20
54.124999999999979
10
-92.725000000000051
20
41.124999999999972
42
0.41421356237309503
10
-92.225000000000037
20
40.624999999999964
10
-79.225000000000037
20
40.624999999999964
42
0.41421356237309503
10
-78.725000000000037
20
41.124999999999972
10
-78.725000000000037
20
54.124999999999979
42
0.41421356237309503
0
LWPOLYLINE
5
109
100
AcDbEntity
8
0
100
AcDbPolyline
90
8
70
1
43
0.0
10
-79.225000000000037
20
35.574999999999974
10
-92.225000000000037
20
35.574999999999974
42
0.41421356237309503
10
-92.725000000000051
20
35.074999999999967
10
-92.725000000000051
20
22.074999999999978
42
0.41421356237309503
10
-92.225000000000037
20
21.574999999999971
10
-79.225000000000037
20
21.574999999999971
42
0.41421356237309503
10
-78.725000000000037
20
22.074999999999978
10
-78.725000000000037
20
35.074999999999967
42
0.41421356237309503
0
LWPOLYLINE
5
110
100
AcDbEntity
8
0
100
AcDbPolyline
90
8
70
1
43
0.0
10
-35.575000000000038
20
35.074999999999989
10
-35.575000000000017
20
22.075000000000014
42
0.41421356237309503
10
-35.075000000000031
20
21.574999999999971
10
-22.075000000000014
20
21.574999999999971
42
0.41421356237309503
10
-21.575000000000017
20
22.075000000000014
10
-21.575000000000024
20
35.074999999999989
42
0.41421356237309503
10
-22.075000000000024
20
35.574999999999989
10
-35.075000000000045
20
35.574999999999989
42
0.41421356237309503
0
LWPOLYLINE
5
111
100
AcDbEntity
8
0
100
AcDbPolyline
90
8
70
1
43
0.0
10
-73.67500000000004
20
16.024999999999974
10
-73.675000000000026
20
3.0250000000000021
42
0.41421356237309503
10
-73.17500000000004
20
2.5249999999999595
10
-60.175000000000026
20
2.524999999999995
42
0.41421356237309503
10
-59.675000000000018
20
3.0250000000000021
10
-59.675000000000018
20
16.024999999999974
42
0.41421356237309503
10
-60.175000000000026
20
16.524999999999981
10
-73.17500000000004
20
16.524999999999981
42
0.41421356237309503
0
LWPOLYLINE
5
112
100
AcDbEntity
8
0
100
AcDbPolyline
90
8
70
1
43
0.0
10
-16.525000000000027
20
73.174999999999983
10
-16.525000000000027
20
60.174999999999997
42
0.41421356237309503
10
-16.025000000000027
20
59.674999999999997
10
-3.025000000000011
20
59.674999999999997
42
0.41421356237309503
10
-2.5250000000000039
20
60.174999999999997
10
-2.5250000000000217
20
73.174999999999983
42
0.41421356237309503
10
-3.0250000000000288
20
73.674999999999997
10
-16.025000000000027
20
73.674999999999997
42
0.41421356237309503
0
LWPOLYLINE
5
113
100
AcDbEntity
8
0
100
AcDbPolyline
90
8
70
1
43
0.0
10
-22.075000000000024
20
54.625
10
-35.075000000000045
20
54.625
42
0.41421356237309503
10
-35.575000000000038
20
54.125
10
-35.575000000000038
20
41.124999999999986
42
0.41421356237309503
10
-35.075000000000045
20
40.624999999999986
10
-22.075000000000024
20
40.624999999999986
42
0.41421356237309503
10
-21.575000000000024
20
41.124999999999986
10
-21.575000000000024
20
54.125
42
0.41421356237309503
0
LWPOLYLINE
5
114
100
AcDbEntity
8
0
100
AcDbPolyline
90
8
70
1
43
0.0
10
-16.525000000000034
20
35.074999999999989
42
-0.41421356237309503
10
-16.025000000000027
20
35.574999999999989
10
-3.025000000000011
20
35.574999999999989
42
-0.41421356237309503
10
-2.5250000000000039
20
35.074999999999989
10
-2.5250000000000039
20
22.075000000000014
42
-0.41421356237309503
10
-3.025000000000011
20
21.575000000000006
10
-16.02500000000002
20
21.575000000000017
42
-0.41421356237309503
10
-16.525000000000016
20
22.075000000000014
0
LWPOLYLINE
5
115
100
AcDbEntity
8
0
100
AcDbPolyline
90
8
70
1
43
0.0
10
-41.125000000000014
20
16.524999999999963
42
-0.41421356237309503
10
-40.625000000000028
20
16.024999999999974
10
-40.625000000000007
20
3.0250000000000021
42
-0.41421356237309503
10
-41.125000000000014
20
2.524999999999995
10
-54.125000000000021
20
2.524999999999995
42
-0.41421356237309503
10
-54.625000000000028
20
3.0250000000000021
10
-54.625000000000028
20
16.024999999999974
42
-0.41421356237309503
10
-54.125000000000021
20
16.524999999999981
0
LWPOLYLINE
5
116
100
AcDbEntity
8
0
100
AcDbPolyline
90
8
70
1
43
0.0
10
-73.17500000000004
20
40.624999999999964
42
-0.41421356237309503
10
-73.67500000000004
20
41.124999999999972
10
-73.675000000000026
20
54.124999999999979
42
-0.41421356237309503
10
-73.17500000000004
20
54.624999999999972
10
-60.175000000000026
20
54.624999999999972
42
-0.41421356237309503
10
-59.67500000000004
20
54.124999999999979
10
-59.675000000000018
20
41.124999999999972
42
-0.41421356237309503
10
-60.175000000000026
20
40.624999999999964
0
LWPOLYLINE
5
117
100
AcDbEntity
8
0
100
AcDbPolyline
90
8
70
1
43
0.0
10
-73.17500000000004
20
21.574999999999971
10
-60.175000000000026
20
21.574999999999971
42
0.41421356237309503
10
-59.67500000000004
20
22.074999999999978
10
-59.675000000000018
20
35.074999999999967
42
0.41421356237309503
10
-60.175000000000026
20
35.574999999999974
10
-73.17500000000004
20
35.574999999999974
42
0.41421356237309503
10
-73.67500000000004
20
35.074999999999967
10
-73.67500000000004
20
22.074999999999978
42
0.41421356237309503
0
LWPOLYLINE
5
118
100
AcDbEntity
8
0
100
AcDbPolyline
90
8
70
1
43
0.0
10
-3.025000000000011
20
54.625
10
-16.025000000000027
20
54.625
42
0.41421356237309503
10
-16.525000000000027
20
54.125
10
-16.525000000000027
20
41.124999999999986
42
0.41421356237309503
10
-16.025000000000027
20
40.624999999999986
10
-3.025000000000011
20
40.624999999999986
42
0.41421356237309503
10
-2.5250000000000039
20
41.124999999999986
10
-2.5250000000000217
20
54.125
42
0.41421356237309503
0
LWPOLYLINE
5
119
100
AcDbEntity
8
0
100
AcDbPolyline
90
8
70
1
43
0.0
10
-78.725000000000037
20
3.0250000000000021
10
-78.725000000000037
20
16.024999999999974
42
0.41421356237309503
10
-79.225000000000037
20
16.524999999999981
10
-92.225000000000037
20
16.524999999999981
42
0.41421356237309503
10
-92.725000000000051
20
16.024999999999974
10
-92.725000000000051
20
3.0250000000000021
42
0.41421356237309503
10
-92.225000000000037
20
2.5249999999999595
10
-79.225000000000037
20
2.5249999999999595
42
0.41421356237309503
0
LWPOLYLINE
5
120
100
AcDbEntity
8
0
100
AcDbPolyline
90
8
70
1
43
0.0
10
-41.125000000000036
20
35.574999999999989
10
-54.125000000000043
20
35.574999999999989
42
0.41421356237309503
10
-54.625000000000028
20
35.074999999999989
10
-54.625000000000028
20
22.074999999999978
42
0.41421356237309503
10
-54.125000000000021
20
21.574999999999971
10
-41.125000000000014
20
21.574999999999971
42
0.41421356237311585
10
-40.625000000000028
20
22.075000000000014
10
-40.625000000000043
20
35.074999999999989
42
0.41421356237309503
0
ENDSEC
0
SECTION
2
OBJECTS
0
DICTIONARY
5
C
100
AcDbDictionary
3
ACAD_GROUP
350
D
3
ACAD_MLINESTYLE
350
17
0
DICTIONARY
5
D
100
AcDbDictionary
0
DICTIONARY
5
1A
330
C
100
AcDbDictionary
0
DICTIONARY
5
17
100
AcDbDictionary
0
ENDSEC
0
EOF
