0
SECTION
2
HEADER
9
$INSUNITS
70
4
9
$ACADVER
1
AC1014
9
$HANDSEED
5
FFFF
0
ENDSEC
0
SECTION
2
TABLES
0
TABLE
2
VPORT
5
8
100
AcDbSymbolTable
0
ENDTAB
0
TABLE
2
LTYPE
5
5
100
AcDbSymbolTable
0
LTYPE
5
14
100
AcDbSymbolTableRecord
100
AcDbLinetypeTableRecord
2
BYBLOCK
70
0
0
LTYPE
5
15
100
AcDbSymbolTableRecord
100
AcDbLinetypeTableRecord
2
BYLAYER
70
0
0
ENDTAB
0
TABLE
2
LAYER
5
2
100
AcDbSymbolTable
70
2
0
LAYER
5
50
100
AcDbSymbolTableRecord
100
AcDbLayerTableRecord
2
0
70
0
6
CONTINUOUS
0
ENDTAB
0
TABLE
2
STYLE
5
3
100
AcDbSymbolTable
70
1
0
STYLE
5
11
100
AcDbSymbolTableRecord
100
AcDbTextStyleTableRecord
2
STANDARD
70
0
0
ENDTAB
0
TABLE
2
VIEW
5
6
100
AcDbSymbolTable
70
0
0
ENDTAB
0
TABLE
2
UCS
5
7
100
AcDbSymbolTable
70
0
0
ENDTAB
0
TABLE
2
APPID
5
9
100
AcDbSymbolTable
70
2
0
APPID
5
12
100
AcDbSymbolTableRecord
100
AcDbRegAppTableRecord
2
ACAD
70
0
0
ENDTAB
0
TABLE
2
DIMSTYLE
5
A
100
AcDbSymbolTable
70
1
0
ENDTAB
0
TABLE
2
BLOCK_RECORD
5
1
100
AcDbSymbolTable
70
1
0
BLOCK_RECORD
5
1F
100
AcDbSymbolTableRecord
100
AcDbBlockTableRecord
2
*MODEL_SPACE
0
BLOCK_RECORD
5
1B
100
AcDbSymbolTableRecord
100
AcDbBlockTableRecord
2
*PAPER_SPACE
0
ENDTAB
0
ENDSEC
0
SECTION
2
BLOCKS
0
BLOCK
5
20
100
AcDbEntity
100
AcDbBlockBegin
2
*MODEL_SPACE
0
ENDBLK
5
21
100
AcDbEntity
100
AcDbBlockEnd
0
BLOCK
5
1C
100
AcDbEntity
100
AcDbBlockBegin
2
*PAPER_SPACE
0
ENDBLK
5
1D
100
AcDbEntity
100
AcDbBlockEnd
0
ENDSEC
0
SECTION
2
ENTITIES
0
LWPOLYLINE
5
100
100
AcDbEntity
8
0
100
AcDbPolyline
90
8
70
1
43
0.0
10
-233.86250000000004
20
57.125
10
-233.86250000000004
20
44.125000000000007
42
-0.41421356237303258
10
-234.36250000000001
20
43.625000000000007
10
-247.36250000000001
20
43.625000000000007
42
-0.41421356237313145
10
-247.86250000000001
20
44.125000000000007
10
-247.86250000000001
20
57.125
42
-0.41421356237313145
10
-247.36250000000001
20
57.625
10
-234.36250000000001
20
57.625000000000057
42
-0.41421356237301699
0
ARC
5
101
100
AcDbEntity
8
0
100
AcDbCircle
10
-3.4999999999999964
20
76.525000000000006
30
0
40
1.2499999999999953
210
0
220
0
230
1
100
AcDbArc
50
101.18805575132208
51
258.81194424867743
0
ARC
5
102
100
AcDbEntity
8
0
100
AcDbCircle
10
-251.88750000000005
20
72.34999999999998
30
0
40
1.5000000000000568
210
0
220
0
230
1
100
AcDbArc
50
0
51
90
0
ARC
5
103
100
AcDbEntity
8
0
100
AcDbCircle
10
-5.1750000003942507
20
5.6749999999989074
30
0
40
2.6750000015758961
210
0
220
-0
230
1
100
AcDbArc
50
52.120780340715008
51
89.999999999999986
0
LINE
5
104
100
AcDbEntity
8
0
100
AcDbLine
10
-251.88749999999999
20
8.3499999999999979
30
0
11
-252.71250000000006
21
8.3499999999999979
31
0
0
LINE
5
105
100
AcDbEntity
8
0
100
AcDbLine
10
-7.5
20
9.8500000000000032
30
0
11
-7.499999999999992
21
72.350000000000023
31
0
0
ARC
5
106
100
AcDbEntity
8
0
100
AcDbCircle
10
-254.04794776119405
20
7.3917423444191774
30
0
40
0.49999999999999289
210
0
220
0
230
1
100
AcDbArc
50
127.87921967452384
51
258.8119442486763
0
ARC
5
107
100
AcDbEntity
8
0
100
AcDbCircle
10
-252.71250000000006
20
76.525000000000006
30
0
40
2.6750000000000007
210
0
220
-0
230
1
100
AcDbArc
50
90
51
127.87921967452094
0
ARC
5
108
100
AcDbEntity
8
0
100
AcDbCircle
10
-254.38749999999999
20
76.524999999999977
30
0
40
1.2499999999999964
210
0
220
0
230
1
100
AcDbArc
50
-78.81194424867968
51
78.81194424867968
0
ARC
5
109
100
AcDbEntity
8
0
100
AcDbCircle
10
-3.8395522388059722
20
74.808257655580817
30
0
40
0.49999999999999623
210
0
220
0
230
1
100
AcDbArc
50
-52.120780325478826
51
78.811944248677833
0
LINE
5
110
100
AcDbEntity
8
0
100
AcDbLine
10
-6.0000000000000053
20
73.850000000000023
30
0
11
-5.1749999999999972
21
73.850000000000023
31
0
0
ARC
5
111
100
AcDbEntity
8
0
100
AcDbCircle
10
-3.8395522388059606
20
78.24174234441918
30
0
40
0.49999999999998612
210
0
220
0
230
1
100
AcDbArc
50
-78.811944248677634
51
52.120780325479103
0
ARC
5
112
100
AcDbEntity
8
0
100
AcDbCircle
10
-3.8395522386891545
20
7.3917423460170886
30
0
40
0.49999999999999922
210
0
220
0
230
1
100
AcDbArc
50
-78.811944252576424
51
52.120780340715172
0
LINE
5
113
100
AcDbEntity
8
0
100
AcDbLine
10
-250.38749999999999
20
72.34999999999998
30
0
11
-250.38750000000007
21
9.8500000000000032
31
0
0
ARC
5
114
100
AcDbEntity
8
0
100
AcDbCircle
10
-252.71250000000006
20
76.525000000000006
30
0
40
2.6749999999999989
210
0
220
0
230
1
100
AcDbArc
50
232.12078032547888
51
270
0
ARC
5
115
100
AcDbEntity
8
0
100
AcDbCircle
10
-5.1750000003942507
20
5.6749999999989074
30
0
40
2.6749999999989078
210
0
220
0
230
1
100
AcDbArc
50
270.00000003375408
51
307.87921976709686
0
ARC
5
116
100
AcDbEntity
8
0
100
AcDbCircle
10
-6.0000000000000053
20
9.8499999999999996
30
0
40
1.4999999999999969
210
0
220
0
230
1
100
AcDbArc
50
180
51
269.99999999999994
0
ARC
5
117
100
AcDbEntity
8
0
100
AcDbCircle
10
-3.5000000000000004
20
5.6750000015748068
30
0
40
1.2499999999999998
210
0
220
0
230
1
100
AcDbArc
50
101.18805574742368
51
258.81194436038805
0
LINE
5
118
100
AcDbEntity
8
0
100
AcDbLine
10
-5.1750000003942498
20
8.3500000015748039
30
0
11
-6.0000000000000062
21
8.3500000000000032
31
0
0
ARC
5
119
100
AcDbEntity
8
0
100
AcDbCircle
10
-254.38749999999999
20
5.674999999999998
30
0
40
1.2500000000000262
210
0
220
0
230
1
100
AcDbArc
50
-78.811944248678657
51
78.811944248679779
0
ARC
5
120
100
AcDbEntity
8
0
100
AcDbCircle
10
-254.04794776119405
20
74.808257655580817
30
0
40
0.49999999999999573
210
0
220
0
230
1
100
AcDbArc
50
101.18805575132397
51
232.12078032547703
0
ARC
5
121
100
AcDbEntity
8
0
100
AcDbCircle
10
-252.71250000000006
20
5.6750000000000007
30
0
40
2.6749999999999918
210
0
220
0
230
1
100
AcDbArc
50
232.12078032547876
51
270
0
ARC
5
122
100
AcDbEntity
8
0
100
AcDbCircle
10
-251.88750000000005
20
9.8500000000000369
30
0
40
1.500000000000038
210
0
220
0
230
1
100
AcDbArc
50
270.0000000000021
51
360
0
ARC
5
123
100
AcDbEntity
8
0
100
AcDbCircle
10
-5.1749999999999847
20
76.525000000000006
30
0
40
2.6749999999999821
210
0
220
-0
230
1
100
AcDbArc
50
52.120780325478492
51
89.999999999999943
0
ARC
5
124
100
AcDbEntity
8
0
100
AcDbCircle
10
-254.04794776119405
20
3.9582576555808151
30
0
40
0.49999999999996869
210
0
220
0
230
1
100
AcDbArc
50
101.18805575132087
51
232.12078032547686
0
ARC
5
125
100
AcDbEntity
8
0
100
AcDbCircle
10
-3.8395522354588119
20
3.9582576564936001
30
0
40
0.50000000000000144
210
0
220
0
230
1
100
AcDbArc
50
-52.120780232902959
51
78.81194436038821
0
ARC
5
126
100
AcDbEntity
8
0
100
AcDbCircle
10
-254.04794776119405
20
78.24174234441918
30
0
40
0.49999999999997902
210
0
220
0
230
1
100
AcDbArc
50
127.87921967452091
51
258.81194424867698
0
ARC
5
127
100
AcDbEntity
8
0
100
AcDbCircle
10
-5.1749999999999847
20
76.525000000000006
30
0
40
2.6749999999999918
210
0
220
0
230
1
100
AcDbArc
50
269.99999999999972
51
307.87921967452115
0
ARC
5
128
100
AcDbEntity
8
0
100
AcDbCircle
10
-252.71250000000006
20
5.6750000000000007
30
0
40
2.6749999999999985
210
0
220
-0
230
1
100
AcDbArc
50
90
51
127.87921967452145
0
ARC
5
129
100
AcDbEntity
8
0
100
AcDbCircle
10
-6.0000000000000062
20
72.350000000000023
30
0
40
1.4999999999999858
210
0
220
-0
230
1
100
AcDbArc
50
89.999999999999972
51
180
0
LINE
5
130
100
AcDbEntity
8
0
100
AcDbLine
10
-252.71250000000006
20
73.850000000000023
30
0
11
-251.88750000000005
21
73.850000000000037
31
0
0
LWPOLYLINE
5
131
100
AcDbEntity
8
0
100
AcDbPolyline
90
8
70
1
43
0.0
10
-99.724999999999952
20
43.625000000000028
42
-0.41421356237309503
10
-100.22499999999995
20
44.125000000000028
10
-100.22499999999994
20
57.125000000000043
42
-0.41421356237309503
10
-99.724999999999952
20
57.625000000000028
10
-86.724999999999937
20
57.625000000000028
42
-0.41421356237309503
10
-86.224999999999937
20
57.125000000000021
10
-86.224999999999937
20
44.125000000000014
42
-0.41421356237309503
10
-86.724999999999937
20
43.625000000000007
0
LWPOLYLINE
5
132
100
AcDbEntity
8
0
100
AcDbPolyline
90
8
70
1
43
0.0
10
-86.724999999999937
20
24.575000000000014
10
-99.724999999999952
20
24.575000000000014
42
-0.41421356237309503
10
-100.22499999999995
20
25.075000000000021
10
-100.22499999999995
20
38.075000000000031
42
-0.41421356237309503
10
-99.724999999999952
20
38.575000000000031
10
-86.724999999999937
20
38.575000000000017
42
-0.41421356237309503
10
-86.224999999999937
20
38.07500000000001
10
-86.224999999999952
20
25.075000000000003
42
-0.41421356237309503
0
LWPOLYLINE
5
133
100
AcDbEntity
8
0
100
AcDbPolyline
90
8
70
1
43
0.0
10
-86.724999999999937
20
19.525000000000006
42
-0.41421356237309503
10
-86.224999999999937
20
19.024999999999999
10
-86.224999999999994
20
6.0250000000000092
42
-0.41421356237309503
10
-86.72499999999998
20
5.5250000000000199
10
-99.72499999999998
20
5.5250000000000199
42
-0.41421356237309503
10
-100.22499999999999
20
6.025000000000027
10
-100.22499999999995
20
19.025000000000016
42
-0.41421356237309503
10
-99.724999999999952
20
19.525000000000023
0
LWPOLYLINE
5
134
100
AcDbEntity
8
0
100
AcDbPolyline
90
8
70
1
43
0.0
10
-23.524999999999938
20
43.625000000000007
42
-0.41421356237309503
10
-24.024999999999945
20
44.125000000000014
10
-24.024999999999928
20
57.125000000000021
42
-0.41421356237309503
10
-23.524999999999938
20
57.625000000000014
10
-10.524999999999931
20
57.624999999999993
42
-0.41421356237309503
10
-10.024999999999959
20
57.125000000000021
10
-10.024999999999924
20
44.125000000000014
42
-0.41421356237309503
10
-10.524999999999931
20
43.625000000000007
0
LWPOLYLINE
5
135
100
AcDbEntity
8
0
100
AcDbPolyline
90
16
70
1
43
0.0
10
-205.76249999999993
20
76.675000000000011
10
-199.76249999999993
20
76.675000000000011
10
-196.26249999999993
20
76.675000000000011
42
-0.41421356237309503
10
-195.76249999999993
20
76.17500000000004
10
-195.7624999999999
20
63.175000000000026
42
-0.41421356237309503
10
-196.26249999999993
20
62.675000000000018
10
-199.26249999999996
20
62.675000000000018
10
-199.26249999999987
20
62.175000000000047
42
-0.41421356237309503
10
-199.76249999999993
20
61.675000000000004
10
-205.76249999999993
20
61.675000000000075
42
-0.41421356237309503
10
-206.26249999999993
20
62.175000000000047
10
-206.26249999999993
20
62.675000000000018
10
-209.26249999999996
20
62.675000000000054
42
-0.41421356237309503
10
-209.76249999999993
20
63.175000000000026
10
-209.76249999999993
20
76.17500000000004
42
-0.41421356237309503
10
-209.26249999999996
20
76.675000000000011
0
LWPOLYLINE
5
136
100
AcDbEntity
8
0
100
AcDbPolyline
90
16
70
1
43
0.0
10
-99.724999999999952
20
76.675000000000011
10
-96.224999999999966
20
76.675000000000011
10
-90.224999999999952
20
76.675000000000011
10
-86.724999999999937
20
76.675000000000011
42
-0.41421356237309503
10
-86.224999999999937
20
76.174999999999997
10
-86.224999999999966
20
63.17499999999999
42
-0.41421356237309503
10
-86.724999999999937
20
62.675000000000018
10
-89.724999999999952
20
62.675000000000018
10
-89.724999999999909
20
62.175000000000011
42
-0.41421356237307422
10
-90.224999999999952
20
61.675000000000004
10
-96.224999999999966
20
61.675000000000075
42
-0.41421356237309503
10
-96.724999999999937
20
62.175000000000047
10
-96.724999999999937
20
62.675000000000018
10
-99.724999999999952
20
62.675000000000018
42
-0.41421356237309503
10
-100.22499999999995
20
63.175000000000026
10
-100.22499999999992
20
76.17500000000004
42
-0.41421356237309503
0
LWPOLYLINE
5
137
100
AcDbEntity
8
0
100
AcDbPolyline
90
8
70
1
43
0.0
10
-43.074999999999939
20
57.125000000000021
42
-0.41421356237309503
10
-42.574999999999946
20
57.625000000000014
10
-29.574999999999942
20
57.625000000000028
42
-0.41421356237309503
10
-29.074999999999935
20
57.125000000000021
10
-29.074999999999935
20
44.125000000000014
42
-0.41421356237309503
10
-29.574999999999942
20
43.625000000000007
10
-42.574999999999946
20
43.625000000000007
42
-0.41421356237309503
10
-43.07499999999996
20
44.125000000000014
0
LWPOLYLINE
5
138
100
AcDbEntity
8
0
100
AcDbPolyline
90
8
70
1
43
0.0
10
-214.81249999999994
20
6.025000000000027
42
-0.41421356237309503
10
-215.31249999999994
20
5.5250000000000377
10
-228.31249999999997
20
5.5250000000000554
42
-0.41421356237309503
10
-228.81249999999994
20
6.025000000000027
10
-228.81249999999997
20
19.025000000000016
42
-0.41421356237309503
10
-228.31249999999997
20
19.525000000000023
10
-215.31249999999994
20
19.524999999999988
42
-0.41421356237309503
10
-214.81249999999994
20
19.025000000000016
0
LWPOLYLINE
5
139
100
AcDbEntity
8
0
100
AcDbPolyline
90
8
70
1
43
0.0
10
-80.67499999999994
20
24.574999999999996
42
-0.41421356237309503
10
-81.17499999999994
20
25.075000000000003
10
-81.17499999999994
20
38.07500000000001
42
-0.41421356237309503
10
-80.67499999999994
20
38.575000000000017
10
-67.674999999999926
20
38.574999999999982
42
-0.41421356237309503
10
-67.174999999999955
20
38.07500000000001
10
-67.17499999999994
20
25.075000000000003
42
-0.41421356237309503
10
-67.674999999999926
20
24.575000000000014
0
LWPOLYLINE
5
140
100
AcDbEntity
8
0
100
AcDbPolyline
90
8
70
1
43
0.0
10
-209.76249999999993
20
6.025000000000027
10
-209.76249999999996
20
19.025000000000016
42
-0.41421356237309503
10
-209.26249999999996
20
19.525000000000023
10
-196.26249999999993
20
19.524999999999988
42
-0.41421356237309503
10
-195.76249999999993
20
19.025000000000016
10
-195.76249999999993
20
6.025000000000027
42
-0.41421356237309503
10
-196.26249999999993
20
5.5250000000000377
10
-209.26249999999996
20
5.5250000000000554
42
-0.41421356237309503
0
LWPOLYLINE
5
141
100
AcDbEntity
8
0
100
AcDbPolyline
90
8
70
1
43
0.0
10
-24.024999999999945
20
63.17499999999999
10
-24.024999999999945
20
76.174999999999997
42
-0.41421356237309503
10
-23.524999999999938
20
76.675000000000011
10
-10.524999999999931
20
76.674999999999969
42
-0.41421356237309503
10
-10.024999999999959
20
76.174999999999997
10
-10.024999999999959
20
63.17499999999999
42
-0.41421356237309503
10
-10.524999999999931
20
62.675000000000018
10
-23.524999999999938
20
62.674999999999983
42
-0.41421356237309503
0
LWPOLYLINE
5
142
100
AcDbEntity
8
0
100
AcDbPolyline
90
8
70
1
43
0.0
10
-158.16249999999999
20
5.5250000000000377
10
-171.16249999999994
20
5.5249999999999844
42
-0.41421356237309503
10
-171.66249999999997
20
6.025000000000027
10
-171.66249999999994
20
19.025000000000016
42
-0.41421356237309503
10
-171.16249999999994
20
19.525000000000023
10
-158.16249999999999
20
19.525000000000059
42
-0.41421356237309503
10
-157.66249999999994
20
19.025000000000016
10
-157.66249999999999
20
6.025000000000027
42
-0.41421356237309503
0
LWPOLYLINE
5
143
100
AcDbEntity
8
0
100
AcDbPolyline
90
16
70
1
43
0.0
10
-51.624999999999957
20
62.675000000000018
10
-51.624999999999929
20
62.175000000000011
42
-0.41421356237309503
10
-52.124999999999929
20
61.675000000000004
10
-58.124999999999943
20
61.675000000000004
42
-0.41421356237309503
10
-58.624999999999957
20
62.175000000000011
10
-58.624999999999957
20
62.675000000000018
10
-61.624999999999957
20
62.675000000000018
42
-0.41421356237309503
10
-62.124999999999929
20
63.17499999999999
10
-62.124999999999972
20
76.174999999999997
42
-0.41421356237309503
10
-61.624999999999957
20
76.675000000000011
10
-58.124999999999943
20
76.675000000000011
10
-52.124999999999929
20
76.675000000000011
10
-48.624999999999957
20
76.675000000000011
42
-0.41421356237309503
10
-48.124999999999943
20
76.174999999999997
10
-48.124999999999986
20
63.17499999999999
42
-0.41421356237309503
10
-48.624999999999957
20
62.675000000000018
0
LWPOLYLINE
5
144
100
AcDbEntity
8
0
100
AcDbPolyline
90
8
70
1
43
0.0
10
-214.81249999999994
20
57.125000000000043
10
-214.81249999999991
20
44.125000000000028
42
-0.41421356237309503
10
-215.31249999999994
20
43.625000000000028
10
-228.31249999999997
20
43.625000000000057
42
-0.41421356237309503
10
-228.81249999999994
20
44.125000000000028
10
-228.81249999999994
20
57.125000000000043
42
-0.41421356237309503
10
-228.31249999999997
20
57.625000000000028
10
-215.31249999999994
20
57.625000000000014
42
-0.41421356237309503
0
LWPOLYLINE
5
145
100
AcDbEntity
8
0
100
AcDbPolyline
90
8
70
1
43
0.0
10
-196.26249999999993
20
43.625000000000028
10
-209.26249999999996
20
43.625000000000057
42
-0.41421356237309503
10
-209.76249999999993
20
44.125000000000028
10
-209.76249999999993
20
57.125000000000043
42
-0.41421356237309503
10
-209.26249999999996
20
57.625000000000028
10
-196.26249999999993
20
57.625000000000014
42
-0.41421356237309503
10
-195.76249999999993
20
57.125000000000043
10
-195.7624999999999
20
44.125000000000028
42
-0.41421356237309503
0
LWPOLYLINE
5
146
100
AcDbEntity
8
0
100
AcDbPolyline
90
8
70
1
43
0.0
10
-209.26249999999996
20
24.575000000000049
42
-0.41421356237309503
10
-209.76249999999993
20
25.075000000000021
10
-209.76249999999996
20
38.075000000000031
42
-0.41421356237309503
10
-209.26249999999996
20
38.575000000000031
10
-196.26249999999993
20
38.575000000000003
42
-0.41421356237309503
10
-195.76249999999993
20
38.075000000000031
10
-195.76249999999993
20
25.075000000000021
42
-0.41421356237309503
10
-196.26249999999993
20
24.575000000000031
0
LWPOLYLINE
5
147
100
AcDbEntity
8
0
100
AcDbPolyline
90
8
70
1
43
0.0
10
-214.81249999999994
20
38.075000000000031
10
-214.81249999999994
20
25.075000000000021
42
-0.41421356237309503
10
-215.31249999999994
20
24.575000000000031
10
-228.31249999999997
20
24.575000000000049
42
-0.41421356237309503
10
-228.81249999999994
20
25.075000000000021
10
-228.81249999999997
20
38.075000000000031
42
-0.41421356237309503
10
-228.31249999999997
20
38.575000000000031
10
-215.31249999999994
20
38.575000000000003
42
-0.41421356237309503
0
LWPOLYLINE
5
148
100
AcDbEntity
8
0
100
AcDbPolyline
90
8
70
1
43
0.0
10
-61.624999999999957
20
24.575000000000031
42
-0.41421356237309503
10
-62.124999999999929
20
25.075000000000003
10
-62.124999999999972
20
38.07500000000001
42
-0.41421356237309503
10
-61.624999999999957
20
38.575000000000017
10
-48.624999999999957
20
38.575000000000017
42
-0.41421356237309503
10
-48.124999999999943
20
38.07500000000001
10
-48.124999999999964
20
25.075000000000003
42
-0.41421356237309503
10
-48.624999999999957
20
24.575000000000014
0
LWPOLYLINE
5
149
100
AcDbEntity
8
0
100
AcDbPolyline
90
8
70
1
43
0.0
10
-190.21249999999995
20
5.5249999999999844
42
-0.41421356237309503
10
-190.71249999999998
20
6.025000000000027
10
-190.71249999999995
20
19.025000000000016
42
-0.41421356237309503
10
-190.21249999999995
20
19.525000000000023
10
-177.21249999999998
20
19.525000000000059
42
-0.41421356237309503
10
-176.71249999999992
20
19.025000000000016
10
-176.71250000000001
20
6.025000000000027
42
-0.41421356237309503
10
-177.21249999999998
20
5.5250000000000377
0
LWPOLYLINE
5
150
100
AcDbEntity
8
0
100
AcDbPolyline
90
8
70
1
43
0.0
10
-233.86249999999995
20
76.17500000000004
10
-233.86249999999993
20
63.175000000000026
42
-0.41421356237309503
10
-234.36249999999995
20
62.675000000000018
10
-247.36249999999998
20
62.67500000000009
42
-0.41421356237309503
10
-247.86249999999995
20
63.175000000000061
10
-247.86249999999998
20
76.17500000000004
42
-0.41421356237309503
10
-247.36249999999998
20
76.67500000000004
10
-234.36249999999995
20
76.675000000000011
42
-0.41421356237309503
0
LWPOLYLINE
5
151
100
AcDbEntity
8
0
100
AcDbPolyline
90
8
70
1
43
0.0
10
-48.124999999999943
20
57.125000000000021
10
-48.124999999999943
20
44.125000000000014
42
-0.41421356237309503
10
-48.624999999999957
20
43.625000000000007
10
-61.624999999999957
20
43.625000000000043
42
-0.41421356237309503
10
-62.124999999999929
20
44.125000000000014
10
-62.12499999999995
20
57.125000000000021
42
-0.41421356237309503
10
-61.624999999999957
20
57.625000000000014
10
-48.624999999999957
20
57.625000000000028
42
-0.41421356237309503
0
LWPOLYLINE
5
152
100
AcDbEntity
8
0
100
AcDbPolyline
90
8
70
1
43
0.0
10
-215.31249999999994
20
62.675000000000018
10
-228.31249999999997
20
62.675000000000054
42
-0.41421356237309503
10
-228.81249999999994
20
63.175000000000026
10
-228.81249999999994
20
76.17500000000004
42
-0.41421356237309503
10
-228.31249999999997
20
76.675000000000011
10
-215.31249999999994
20
76.675000000000011
42
-0.41421356237309503
10
-214.81249999999994
20
76.17500000000004
10
-214.81249999999991
20
63.175000000000026
42
-0.41421356237309503
0
LWPOLYLINE
5
153
100
AcDbEntity
8
0
100
AcDbPolyline
90
8
70
1
43
0.0
10
-10.024999999999977
20
6.0250000000000092
42
-0.41421356237309503
10
-10.524999999999967
20
5.5250000000000199
10
-23.524999999999974
20
5.5250000000000021
42
-0.41421356237309503
10
-24.024999999999981
20
6.0250000000000092
10
-24.024999999999945
20
19.024999999999999
42
-0.41421356237309503
10
-23.524999999999938
20
19.525000000000006
10
-10.524999999999931
20
19.52499999999997
42
-0.41421356237309503
10
-10.024999999999959
20
19.024999999999999
0
LWPOLYLINE
5
154
100
AcDbEntity
8
0
100
AcDbPolyline
90
8
70
1
43
0.0
10
-10.024999999999942
20
25.075000000000003
42
-0.41421356237309503
10
-10.524999999999931
20
24.575000000000014
10
-23.524999999999938
20
24.574999999999996
42
-0.41421356237309503
10
-24.024999999999945
20
25.075000000000003
10
-24.024999999999945
20
38.07500000000001
42
-0.41421356237309503
10
-23.524999999999938
20
38.575000000000017
10
-10.524999999999931
20
38.574999999999982
42
-0.41421356237309503
10
-10.024999999999959
20
38.07500000000001
0
LWPOLYLINE
5
155
100
AcDbEntity
8
0
100
AcDbPolyline
90
8
70
1
43
0.0
10
-29.074999999999935
20
19.024999999999999
10
-29.074999999999989
20
6.0250000000000092
42
-0.41421356237309503
10
-29.574999999999978
20
5.5250000000000199
10
-42.574999999999989
20
5.5250000000000021
42
-0.41421356237309503
10
-43.074999999999989
20
6.0250000000000092
10
-43.07499999999996
20
19.024999999999999
42
-0.41421356237309503
10
-42.574999999999946
20
19.525000000000006
10
-29.574999999999942
20
19.525000000000006
42
-0.41421356237309503
0
LWPOLYLINE
5
156
100
AcDbEntity
8
0
100
AcDbPolyline
90
8
70
1
43
0.0
10
-190.21249999999995
20
43.624999999999986
42
-0.41421356237309503
10
-190.71249999999998
20
44.125000000000028
10
-190.71249999999992
20
57.125000000000043
42
-0.41421356237309503
10
-190.21249999999995
20
57.625000000000028
10
-177.21249999999998
20
57.625000000000085
42
-0.41421356237309503
10
-176.71249999999992
20
57.125000000000043
10
-176.71249999999998
20
44.125000000000028
42
-0.41421356237309503
10
-177.21249999999998
20
43.625000000000028
0
LWPOLYLINE
5
157
100
AcDbEntity
8
0
100
AcDbPolyline
90
8
70
1
43
0.0
10
-190.71249999999995
20
38.075000000000031
42
-0.41421356237309503
10
-190.21249999999995
20
38.575000000000031
10
-177.21249999999998
20
38.575000000000074
42
-0.41421356237309503
10
-176.71249999999992
20
38.075000000000031
10
-176.71250000000001
20
25.075000000000021
42
-0.41421356237309503
10
-177.21249999999998
20
24.575000000000031
10
-190.21249999999995
20
24.574999999999978
42
-0.41421356237309503
10
-190.71249999999998
20
25.075000000000021
0
LWPOLYLINE
5
158
100
AcDbEntity
8
0
100
AcDbPolyline
90
8
70
1
43
0.0
10
-157.66249999999994
20
38.075000000000031
10
-157.66249999999999
20
25.075000000000021
42
-0.41421356237309503
10
-158.16249999999999
20
24.575000000000031
10
-171.16249999999994
20
24.574999999999978
42
-0.41421356237309503
10
-171.66249999999997
20
25.075000000000021
10
-171.66249999999994
20
38.075000000000031
42
-0.41421356237309503
10
-171.16249999999994
20
38.575000000000031
10
-158.16249999999999
20
38.575000000000074
42
-0.41421356237309503
0
LWPOLYLINE
5
159
100
AcDbEntity
8
0
100
AcDbPolyline
90
8
70
1
43
0.0
10
-43.07499999999996
20
63.17499999999999
10
-43.07499999999996
20
76.174999999999997
42
-0.41421356237309503
10
-42.574999999999946
20
76.675000000000011
10
-29.574999999999942
20
76.675000000000011
42
-0.41421356237309503
10
-29.074999999999935
20
76.174999999999997
10
-29.074999999999971
20
63.17499999999999
42
-0.41421356237309503
10
-29.574999999999942
20
62.675000000000018
10
-42.574999999999946
20
62.674999999999983
42
-0.41421356237309503
0
LWPOLYLINE
5
160
100
AcDbEntity
8
0
100
AcDbPolyline
90
8
70
1
43
0.0
10
-233.86249999999995
20
38.075000000000031
10
-233.86249999999995
20
25.075000000000021
42
-0.41421356237309503
10
-234.36249999999995
20
24.575000000000031
10
-247.36249999999998
20
24.575000000000067
42
-0.41421356237309503
10
-247.86249999999995
20
25.075000000000038
10
-247.86249999999998
20
38.075000000000045
42
-0.41421356237309503
10
-247.36249999999998
20
38.575000000000053
10
-234.36249999999995
20
38.575000000000003
42
-0.41421356237309503
0
LWPOLYLINE
5
161
100
AcDbEntity
8
0
100
AcDbPolyline
90
35
70
1
43
0.0
10
-167.66249999999991
20
61.675000000000004
42
-0.41421356237309503
10
-168.16249999999997
20
62.175000000000047
10
-168.16249999999997
20
62.675000000000018
10
-171.16249999999994
20
62.675000000000018
10
-177.21249999999998
20
62.675000000000018
10
-180.68749999999994
20
62.675000000000018
10
-182.62549999999999
20
62.675000000000018
10
-182.6254999999999
20
62.175000000000047
42
-0.41421356237309503
10
-183.12549999999993
20
61.675000000000004
10
-189.12549999999996
20
61.675000000000075
42
-0.41421356237309503
10
-189.62549999999993
20
62.175000000000047
10
-189.62549999999993
20
62.675000000000018
10
-190.21249999999995
20
62.674999999999983
42
-0.41421356237309503
10
-190.71249999999998
20
63.175000000000026
10
-190.71249999999992
20
76.17500000000004
42
-0.41421356237309503
10
-190.21249999999995
20
76.675000000000011
10
-189.12549999999996
20
76.675000000000011
10
-183.12549999999993
20
76.675000000000011
10
-180.68749999999994
20
76.675000000000011
10
-177.21249999999998
20
76.675000000000011
10
-171.16249999999994
20
76.675000000000011
10
-167.68749999999997
20
76.675000000000011
10
-167.66249999999991
20
76.675000000000011
10
-165.24949999999995
20
76.675000000000011
10
-161.66249999999997
20
76.675000000000011
10
-159.24949999999998
20
76.675000000000011
10
-158.16249999999999
20
76.675000000000068
42
-0.41421356237309503
10
-157.66249999999994
20
76.17500000000004
10
-157.66249999999997
20
63.175000000000026
42
-0.41421356237309503
10
-158.16249999999999
20
62.675000000000018
10
-158.74950000000001
20
62.675000000000018
10
-158.74949999999993
20
62.175000000000047
42
-0.41421356237309503
10
-159.24949999999998
20
61.675000000000004
10
-161.66249999999997
20
61.675000000000004
10
-165.24949999999995
20
61.675000000000004
0
LWPOLYLINE
5
162
100
AcDbEntity
8
0
100
AcDbPolyline
90
8
70
1
43
0.0
10
-29.074999999999953
20
25.075000000000003
42
-0.41421356237309503
10
-29.574999999999942
20
24.575000000000014
10
-42.574999999999946
20
24.574999999999996
42
-0.41421356237309503
10
-43.07499999999996
20
25.075000000000003
10
-43.07499999999996
20
38.07500000000001
42
-0.41421356237309503
10
-42.574999999999946
20
38.575000000000017
10
-29.574999999999942
20
38.575000000000017
42
-0.41421356237309503
10
-29.074999999999935
20
38.07500000000001
0
LWPOLYLINE
5
163
100
AcDbEntity
8
0
100
AcDbPolyline
90
8
70
1
43
0.0
10
-247.86249999999995
20
6.0250000000000448
10
-247.86249999999998
20
19.025000000000034
42
-0.41421356237309503
10
-247.36249999999998
20
19.525000000000041
10
-234.36249999999995
20
19.524999999999988
42
-0.41421356237309503
10
-233.86249999999995
20
19.025000000000016
10
-233.86249999999995
20
6.025000000000027
42
-0.41421356237309503
10
-234.36249999999995
20
5.5250000000000377
10
-247.36249999999998
20
5.5250000000000732
42
-0.41421356237309503
0
LWPOLYLINE
5
164
100
AcDbEntity
8
0
100
AcDbPolyline
90
8
70
1
43
0.0
10
-157.66249999999994
20
57.125000000000043
10
-157.66249999999997
20
44.125000000000028
42
-0.41421356237309503
10
-158.16249999999999
20
43.625000000000028
10
-171.16249999999994
20
43.624999999999986
42
-0.41421356237309503
10
-171.66249999999997
20
44.125000000000028
10
-171.66249999999991
20
57.125000000000043
42
-0.41421356237309503
10
-171.16249999999994
20
57.625000000000028
10
-158.16249999999999
20
57.625000000000085
42
-0.41421356237309503
0
LWPOLYLINE
5
165
100
AcDbEntity
8
0
100
AcDbPolyline
90
8
70
1
43
0.0
10
-67.674999999999926
20
19.52499999999997
42
-0.41421356237309503
10
-67.174999999999955
20
19.024999999999999
10
-67.174999999999983
20
6.0250000000000092
42
-0.41421356237309503
10
-67.674999999999969
20
5.5250000000000199
10
-80.674999999999969
20
5.5250000000000021
42
-0.41421356237309503
10
-81.174999999999983
20
6.0250000000000092
10
-81.17499999999994
20
19.024999999999999
42
-0.41421356237309503
10
-80.67499999999994
20
19.525000000000006
0
LWPOLYLINE
5
166
100
AcDbEntity
8
0
100
AcDbPolyline
90
8
70
1
43
0.0
10
-67.674999999999926
20
43.625000000000007
10
-80.67499999999994
20
43.625000000000007
42
-0.41421356237309503
10
-81.17499999999994
20
44.125000000000014
10
-81.174999999999926
20
57.125000000000021
42
-0.41421356237309503
10
-80.67499999999994
20
57.625000000000014
10
-67.674999999999926
20
57.624999999999993
42
-0.41421356237309503
10
-67.174999999999955
20
57.125000000000021
10
-67.174999999999926
20
44.125000000000014
42
-0.41421356237309503
0
LWPOLYLINE
5
167
100
AcDbEntity
8
0
100
AcDbPolyline
90
8
70
1
43
0.0
10
-48.125
20
6.0250000000000092
42
-0.41421356237309503
10
-48.624999999999986
20
5.5250000000000199
10
-61.625
20
5.5250000000000377
42
-0.41421356237309503
10
-62.124999999999972
20
6.0250000000000092
10
-62.124999999999972
20
19.024999999999999
42
-0.41421356237309503
10
-61.624999999999957
20
19.525000000000006
10
-48.624999999999957
20
19.525000000000006
42
-0.41421356237309503
10
-48.124999999999943
20
19.024999999999999
0
LWPOLYLINE
5
168
100
AcDbEntity
8
0
100
AcDbPolyline
90
8
70
1
43
0.0
10
-80.67499999999994
20
62.674999999999983
42
-0.41421356237309503
10
-81.17499999999994
20
63.17499999999999
10
-81.17499999999994
20
76.174999999999997
42
-0.41421356237309503
10
-80.67499999999994
20
76.675000000000011
10
-67.674999999999926
20
76.674999999999969
42
-0.41421356237309503
10
-67.174999999999955
20
76.174999999999997
10
-67.174999999999955
20
63.17499999999999
42
-0.41421356237309503
10
-67.674999999999926
20
62.675000000000018
0
LWPOLYLINE
5
169
100
AcDbEntity
8
0
100
AcDbPolyline
90
4
70
1
43
0.0
10
-102.75000861175852
20
75.700000000000017
10
-102.75000861175852
20
6.5000000000000107
10
-155.13751980819544
20
6.5000000000000124
10
-155.13751980819544
20
75.700000000000017
0
LINE
5
170
100
AcDbEntity
8
0
100
AcDbLine
10
-5.1749999988183539
20
3
30
0
11
-252.71250000000006
21
3.0000000000000142
31
0
0
LINE
5
171
100
AcDbEntity
8
0
100
AcDbLine
10
-252.71250000000006
20
79.200000000000003
30
0
11
-5.1749999999999821
21
79.200000000000003
31
0
0
ENDSEC
0
SECTION
2
OBJECTS
0
DICTIONARY
5
C
100
AcDbDictionary
3
ACAD_GROUP
350
D
3
ACAD_MLINESTYLE
350
17
0
DICTIONARY
5
D
100
AcDbDictionary
0
DICTIONARY
5
1A
330
C
100
AcDbDictionary
0
DICTIONARY
5
17
100
AcDbDictionary
0
ENDSEC
0
EOF
